<?xml version="1.0" encoding="UTF-8" standalone="no"?>
<!-- Created with Inkscape (http://www.inkscape.org/) -->

<svg
   xmlns:dc="http://purl.org/dc/elements/1.1/"
   xmlns:cc="http://creativecommons.org/ns#"
   xmlns:rdf="http://www.w3.org/1999/02/22-rdf-syntax-ns#"
   xmlns:svg="http://www.w3.org/2000/svg"
   xmlns="http://www.w3.org/2000/svg"
   xmlns:sodipodi="http://sodipodi.sourceforge.net/DTD/sodipodi-0.dtd"
   xmlns:inkscape="http://www.inkscape.org/namespaces/inkscape"
   width="101"
   height="101"
   id="svg2"
   version="1.1"
   inkscape:version="0.48.5 r10040"
   sodipodi:docname="mapnificent_square.svg"
   inkscape:export-filename="/Users/sw/Sites/mapnificent/mapnificent/static/img/favicon.png"
   inkscape:export-xdpi="57.029999"
   inkscape:export-ydpi="57.029999"
   style="display:inline">
  <defs
     id="defs4">
    <inkscape:perspective
       sodipodi:type="inkscape:persp3d"
       inkscape:vp_x="0 : 526.18109 : 1"
       inkscape:vp_y="0 : 1000 : 0"
       inkscape:vp_z="744.09448 : 526.18109 : 1"
       inkscape:persp3d-origin="372.04724 : 350.78739 : 1"
       id="perspective10" />
    <inkscape:perspective
       id="perspective2920"
       inkscape:persp3d-origin="0.5 : 0.33333333 : 1"
       inkscape:vp_z="1 : 0.5 : 1"
       inkscape:vp_y="0 : 1000 : 0"
       inkscape:vp_x="0 : 0.5 : 1"
       sodipodi:type="inkscape:persp3d" />
    <inkscape:perspective
       id="perspective2850"
       inkscape:persp3d-origin="0.5 : 0.33333333 : 1"
       inkscape:vp_z="1 : 0.5 : 1"
       inkscape:vp_y="0 : 1000 : 0"
       inkscape:vp_x="0 : 0.5 : 1"
       sodipodi:type="inkscape:persp3d" />
  </defs>
  <sodipodi:namedview
     id="base"
     pagecolor="#ffffff"
     bordercolor="#666666"
     borderopacity="1.0"
     inkscape:pageopacity="0.0"
     inkscape:pageshadow="2"
     inkscape:zoom="2.4"
     inkscape:cx="57.417421"
     inkscape:cy="43.031609"
     inkscape:document-units="px"
     inkscape:current-layer="layer1"
     showgrid="false"
     inkscape:window-width="1280"
     inkscape:window-height="755"
     inkscape:window-x="-2"
     inkscape:window-y="0"
     inkscape:window-maximized="0" />
  <metadata
     id="metadata7">
    <rdf:RDF>
      <cc:Work
         rdf:about="">
        <dc:format>image/svg+xml</dc:format>
        <dc:type
           rdf:resource="http://purl.org/dc/dcmitype/StillImage" />
        <dc:title></dc:title>
      </cc:Work>
    </rdf:RDF>
  </metadata>
  <g
     inkscape:label="Layer 1"
     inkscape:groupmode="layer"
     id="layer1"
     transform="translate(23.379842,-1060.6414)"
     style="display:inline">
    <path
       style="fill:#6cca00;fill-opacity:1;stroke:none"
       d="m -31.965136,1051.1409 c 0.06428,0.1156 0.214094,0.1588 0.333187,0.1 0.121963,-0.059 0.165647,-0.2077 0.102074,-0.3232 -0.06332,-0.1152 -0.213833,-0.1597 -0.333138,-0.1 -0.121962,0.059 -0.165646,0.2076 -0.102123,0.323 z m -3.744885,3.6816 c 0.08385,0.658 0.636363,0.951 1.131318,0.5994 0.33287,-0.236 0.376734,-0.4623 0.163971,-0.8476 -0.212316,-0.3851 -0.430658,-0.4752 -0.817684,-0.3379 -0.316846,0.1125 -0.508172,0.3465 -0.47756,0.5856 z m 5.702438,8.2517 c -1.071954,1.294 -0.481855,3.2204 1.1303,3.6894 2.026561,0.5896 3.741729,-1.4367 2.745467,-3.2433 -0.763129,-1.3837 -2.895542,-1.6293 -3.876261,-0.4407 z m 20.7082902,-6.3984 c 0.063375,0.1154 0.2140943,0.1589 0.3331867,0.1 0.1219628,-0.059 0.1656464,-0.2077 0.1021349,-0.3232 -0.063325,-0.1153 -0.2140944,-0.1588 -0.3331867,-0.1 -0.1219637,0.059 -0.1657079,0.2076 -0.1021349,0.3231 z m 3.017704,4.7668 c 0.083977,0.658 0.6363235,0.9508 1.1313074,0.5996 0.3329311,-0.2361 0.3766445,-0.4626 0.1639706,-0.8477 -0.2123522,-0.385 -0.4307579,-0.4754 -0.8177947,-0.338 -0.3167846,0.1125 -0.5080494,0.3465 -0.4775489,0.5856 z m 1.6001812,3.3533 c -1.0719929,1.2938 -0.4818552,3.2203 1.1302617,3.6892 2.0265606,0.5896 3.74172857,-1.4368 2.74545557,-3.2432 -0.76310797,-1.384 -2.89554207,-1.6294 -3.87633357,-0.4406 z m -26.1696714,16.3103 c 0.06338,0.1153 0.214094,0.1588 0.333186,0.1 0.121963,-0.059 0.165647,-0.2076 0.102135,-0.3231 -0.06332,-0.1153 -0.213984,-0.1588 -0.333076,-0.1 -0.121963,0.059 -0.165708,0.2076 -0.102062,0.323 z m 14.815611,-4.1081 c -0.765677,1.0521 -0.932072,2.863 -0.358802,3.9029 0.164184,0.2975 0.751826,0.8488 1.305752,1.2246 1.084347,0.7354 2.956103,0.8883 4.033922,0.3285 1.0774635,-0.5597 1.9857611,-2.1547 1.9567777,-3.4379 -0.014765,-0.6558 -0.1612132,-1.4356 -0.3254683,-1.7332 -0.164161,-0.298 -0.7517424,-0.8491 -1.3057794,-1.225 -1.084236,-0.7354 -2.956102,-0.8883 -4.033849,-0.3287 -0.308481,0.1608 -0.881392,0.7311 -1.272431,1.2687 z m 15.61413067,-5.4933 c -0.183257,0.2263 -0.462102,0.864 -0.61944297,1.4169 -0.238687,0.8368 -0.190713,1.1788 0.28370297,2.0387 0.504366,0.9149 0.714221,1.0757 1.82690203,1.3992 1.116291,0.324 1.378577,0.3021 2.339077,-0.1958 0.960379,-0.499 1.124994,-0.698 1.465907,-1.779 0.341358,-1.0807 0.319222,-1.3345 -0.191479,-2.2612 -0.506088,-0.9176 -0.720424,-1.0857 -1.77386,-1.3922 -1.269426,-0.3691 -2.66921203,-0.044 -3.33069603,0.7734 z M -19.429877,1086.377 c 0.08378,0.6576 0.636316,0.9503 1.131107,0.5993 0.332808,-0.2361 0.376661,-0.4622 0.164021,-0.8476 -0.212402,-0.3851 -0.43072,-0.4752 -0.817746,-0.3379 -0.316662,0.1124 -0.508111,0.3465 -0.47746,0.5858 z m 21.3799217,-8.5396 c -1.56211603,1.9963 -1.30359103,4.6449 0.599124,6.1431 0.914398,0.7199 1.985752,1.1005 3.056146,1.0863 l 0.78337,-0.01 -0.535507,1.061 c -0.554525,1.0987 -0.743614,2.9256 -0.423309,4.0857 0.262386,0.9499 -0.313746,0.9158 -1.10093,-0.061 -1.735395,-2.1639 -4.86483403,-2.7505 -7.172848,-1.3445 -1.7038805,1.038 -2.5921828,2.5985 -2.5756372,4.5251 l 0.012487,1.476 -1.1952088,0.8043 c -1.4747188,0.9924 -2.1192496,1.8549 -2.7438632,3.6721 -0.3761464,1.0947 -0.6916625,1.5558 -1.4149135,2.0682 -0.512031,0.3626 -1.232479,1.1742 -1.601087,1.8032 -0.643636,1.0987 -1.059068,3.4736 -0.716415,4.0954 0.109726,0.1986 0.01038,0.3127 -0.299516,0.346 -1.979069,0.2126 -3.612233,1.6787 -4.065904,3.6512 -1.043655,4.5391 5.205314,7.2941 8.1406018,3.5895 0.3671085,-0.4635 0.767468,-1.2949 0.8895445,-1.8477 l 0.2217219,-1.005 1.0612705,0.015 c 2.2906521,0.041 4.4259813,-1.2018 5.536288,-3.223 0.384652,-0.6999 0.78415897,-1.225 0.88798497,-1.1669 0.106107,0.055 0.632923,0.6718 1.175455,1.3632 0.54261003,0.6918 1.34245803,1.5379 1.77745203,1.8805 0.435006,0.3425 1.19915,1.2804 1.698125,2.0845 1.515081,2.4414 3.910299,4.1772 6.6699593,4.8341 2.001894,0.4722 2.215281,0.6878 2.183713,2.1542 -0.01481,0.6913 -0.16195,1.3267 -0.326625,1.4124 -0.90157,0.4674 -2.286297,2.4212 -2.7428943,3.8692 -1.598293,5.0664 2.8247273,10.2126 8.1713943,9.5076 0.801104,-0.1057 1.535864,-0.2333 1.632753,-0.2837 0.0943,-0.054 0.273182,0.4804 0.39172,1.1791 0.167816,0.9896 0.07567,1.563 -0.416202,2.5897 -0.436198,0.9107 -0.625507,1.8515 -0.61173,3.0404 0.01098,0.9467 -0.09696,2.0924 -0.239851,2.5452 -0.344088,1.0909 -0.30159,2.574 0.10691,3.7239 0.201261,0.5668 0.214256,0.9947 0.03237,1.0891 -0.165563,0.084 -0.475176,0.7139 -0.690584,1.3968 -0.404061,1.2799 -0.144035,3.1961 0.517893,3.8193 0.283188,0.2667 0.165225,0.4136 -0.836332,1.0412 -1.002642,0.6274 -1.218516,0.8975 -1.54088,1.9194 -0.36086,1.142 -0.344311,1.2462 0.432279,2.6531 0.779025,1.4125 0.851392,1.4766 2.064445,1.8296 1.212882,0.3529 1.310301,0.3377 2.774596,-0.4221 1.451081,-0.7534 1.533796,-0.8382 1.88381,-1.9481 0.260381,-0.8249 0.264189,-1.425 0.01405,-2.0754 l -0.35195,-0.9148 1.238535,-0.6158 c 1.553844,-0.7726 2.447992,-1.9108 2.636156,-3.3583 0.113072,-0.8698 0.303296,-1.19 0.997223,-1.6804 1.134139,-0.8017 2.016252,-2.0597 2.402912,-3.427 l 0.314819,-1.1131 0.878958,0.542 c 3.335992,2.0561 7.273141,-1.309 5.433758,-4.6442 -0.642055,-1.1643 -1.794942,-1.8606 -3.167176,-1.9131 l -1.009759,-0.038 0.784591,-1.0095 c 0.925017,-1.19 1.596568,-3.4594 1.405891,-4.7502 -0.135791,-0.9174 -0.06943,-1.0405 1.034873,-1.9205 0.581434,-0.4632 0.601186,-0.4567 0.90784,0.3002 0.172386,0.4259 0.606208,1.0434 0.963999,1.3728 0.582193,0.5359 0.637928,0.7119 0.530882,1.6735 -0.06622,0.591 0.01686,1.3215 0.183614,1.623 0.649148,1.1734 2.812828,1.8134 4.016767,1.1886 1.108226,-0.5752 1.862175,-2.7132 1.311153,-3.7176 -0.122037,-0.2224 0.04614,-0.6575 0.428659,-1.1115 0.845706,-1.0025 1.084431,-1.7006 1.008873,-2.9496 -0.107581,-1.7786 -1.318762,-3.3059 -3.073047,-3.8748 l -0.7254,-0.2358 0.77676,-0.4034 c 0.64013,-0.3326 0.84938,-0.3257 1.190071,0.038 0.227224,0.2422 0.997113,0.6968 1.710626,1.01 l 1.297468,0.5694 0.003,1.1417 c 0.004,1.5931 1.337077,4.0309 2.68203,4.9049 1.165314,0.7572 3.198817,1.2614 4.397933,1.0904 l 0.904311,-0.129 0.0069,1.4694 c 0.0091,1.8694 0.531961,2.8279 2.108426,3.8649 0.991044,0.6519 1.50693,0.8018 2.708004,0.7877 0.85879,-0.01 1.829718,-0.1969 2.305384,-0.4436 0.475566,-0.2469 1.17477,-0.9268 1.660027,-1.6142 0.678767,-0.9615 0.836234,-1.4611 0.8273,-2.6226 -0.0059,-0.8139 -0.196174,-1.7704 -0.438712,-2.2101 -0.649154,-1.1772 -2.550115,-2.3635 -3.877899,-2.4202 l -1.11992,-0.048 0.331739,-0.9638 c 0.56393,-1.6363 0.4289,-2.9389 -0.477197,-4.6046 -0.549734,-1.0103 -1.088915,-1.6915 -1.69741,-2.1445 l -0.891959,-0.6639 0.298919,-1.2972 c 0.576655,-2.5075 -0.366042,-5.5259 -2.242968,-7.1839 -0.450808,-0.3981 -1.078429,-1.1936 -1.394923,-1.7677 -0.484724,-0.8788 -0.532046,-1.2318 -0.300378,-2.2396 0.151494,-0.6581 0.269773,-1.6442 0.263011,-2.1906 -0.007,-0.5469 0.147948,-1.4182 0.343635,-1.9361 0.195831,-0.5183 0.306508,-1.5149 0.246673,-2.2147 l -0.109039,-1.2725 0.885814,-0.1693 c 2.688546,-0.5151 3.932395,-4.3959 2.037382,-6.3553 -0.54017,-0.5584 -0.676213,-0.8142 -0.547916,-1.0306 0.116515,-0.1954 0.400344,-0.01 0.889969,0.5735 1.815563,2.1704 5.120807,1.6355 5.940061,-0.9615 0.577665,-1.8313 -0.323169,-3.4345 -2.243571,-3.9933 -0.62127,-0.181 -1.273624,-0.2544 -1.449793,-0.1584 -0.359277,0.1866 -0.61155,-0.1059 -0.397457,-0.4624 0.07692,-0.1276 0.04607,-0.8795 -0.06875,-1.6697 l -0.208924,-1.4369 1.318372,-0.5937 c 4.199218,-1.8915 4.749672,-7.5578 0.984824,-10.1378 -2.705659,-1.8539 -6.486513,-1.3851 -8.410835,1.043 l -0.685364,0.8651 -0.375402,-0.7301 c -0.465642,-0.9054 -1.259141,-1.1636 -2.151677,-0.7004 -0.858919,0.4462 -1.102706,1.2181 -0.6457,2.0467 0.451143,0.818 1.25212,1.0623 2.07835,0.6335 l 0.638845,-0.3319 -0.163496,1.1383 c -0.09011,0.6262 -0.144318,1.2472 -0.121179,1.38 0.02563,0.144 -0.41346,0.3103 -1.086512,0.4112 -2.867587,0.4314 -5.295696,2.5468 -6.15988,5.3664 -0.510078,1.6641 -0.544546,1.7116 -1.004877,1.3728 -0.70805,-0.521 -2.852668,-1.3075 -4.384694,-1.6079 -1.672157,-0.3282 -1.733101,-0.3785 -1.217701,-1.0312 1.001255,-1.2667 0.298902,-3.7826 -1.31127,-4.6967 -2.75084,-1.5618 -6.426173,1.5782 -4.959835,4.2371 0.265011,0.4802 0.2098,0.5804 -0.532946,0.9658 l -0.828474,0.4299 -0.623731,-1.158 c -0.573045,-1.0637 -0.725779,-1.1875 -1.881041,-1.524 -1.113709,-0.3243 -1.379762,-0.3024 -2.330644,0.1917 -0.919951,0.4769 -1.124933,0.7119 -1.433263,1.6374 l -0.35978,1.08 -0.813336,-0.8205 c -0.997426,-1.0068 -2.83925,-1.9905 -3.988183,-2.1307 -0.715444,-0.093 -0.92597,-0.2482 -1.282794,-0.9571 -0.500696,-1.0026 -1.20834,-1.2939 -2.143725,-0.8824 -0.353763,0.1558 -1.294963,0.2321 -2.09141,0.1702 -0.796498,-0.062 -1.644302,-0.012 -1.883839,0.1135 -0.3844563,0.2001 -0.3997453,0.1049 -0.1272623,-0.8124 0.6030323,-2.0304 0.06013,-3.8095 -1.513638,-4.9582 -2.121168,-1.5482 -4.924738,-1.2182 -6.474677,0.763 z m 37.1609333,48.5869 c 0.13561,0.082 0.09189,0.2223 -0.102051,0.3229 -0.193978,0.1005 -0.344083,0.057 -0.333076,-0.1 0.01026,-0.1542 0.05642,-0.2995 0.102146,-0.3233 0.0447,-0.026 0.195588,0.022 0.333075,0.1 z m -50.480431,-37.0393 c -0.849881,0.9799 0.118646,2.6521 1.4393506,2.4848 1.4377054,-0.1817 1.9585386,-1.8335 0.8677661,-2.7509 -0.382259,-0.3215 -1.6454477,-0.4658 -1.8870107,-0.2095 -0.01593,0.022 -0.207364,0.2357 -0.42088,0.4815 z m 41.117437,-20.1152 c -0.08837,0.2795 -0.06341,0.6838 0.05497,0.8984 0.118343,0.2146 0.451182,0.4589 0.739669,0.5428 0.28741,0.087 0.706478,0.058 0.929284,-0.054 0.22228,-0.1157 0.476588,-0.4386 0.56478,-0.718 0.0883,-0.2794 0.06331,-0.6833 -0.05508,-0.898 -0.118357,-0.2148 -0.451232,-0.459 -0.739647,-0.543 -0.287411,-0.087 -0.706558,-0.057 -0.929346,0.054 -0.222718,0.1147 -0.476627,0.4383 -0.564696,0.7177 z m -51.837744,30.2644 c 0.06333,0.1153 0.213983,0.1588 0.332964,0.1 0.121964,-0.059 0.16577,-0.2078 0.102113,-0.323 -0.06312,-0.1163 -0.213984,-0.1587 -0.333076,-0.1 -0.121963,0.059 -0.165768,0.2077 -0.102135,0.3232 z m 43.262653,-21.6434 c 0.06338,0.1154 0.214033,0.1589 0.333186,0.1 0.116963,-0.068 0.165586,-0.2076 0.102135,-0.3232 -0.06428,-0.1155 -0.214094,-0.1588 -0.333186,-0.1 -0.121964,0.059 -0.16577,0.2078 -0.102158,0.3235 z m -28.9173316,17.1712 c 0.064281,0.1155 0.2140944,0.1588 0.3331867,0.1 0.1219637,-0.059 0.1656465,-0.2076 0.1021464,-0.3233 -0.063375,-0.1153 -0.2139837,-0.1587 -0.3331867,-0.1 -0.1219636,0.059 -0.1657079,0.2077 -0.1021349,0.3232 z m 37.9501126,-18.7779 c -0.283854,0.9009 -0.259406,1.2579 0.140077,1.9815 0.399018,0.7236 0.691222,0.9421 1.621389,1.2127 0.930295,0.271 1.299562,0.2447 2.049723,-0.1432 0.750111,-0.3892 0.977437,-0.6728 1.261646,-1.5739 0.283792,-0.9009 0.259323,-1.2576 -0.140149,-1.9813 -0.399018,-0.7237 -0.69121,-0.9423 -1.621429,-1.2129 -0.930446,-0.2701 -1.299561,-0.2447 -2.049794,0.1433 -0.750111,0.3892 -0.977437,0.6728 -1.261574,1.5737 z m 25.734196,-12.2675 c 0.08384,0.6582 0.636384,0.9508 1.131318,0.5995 0.332869,-0.2361 0.376683,-0.4624 0.16397,-0.8477 -0.212389,-0.3848 -0.430731,-0.475 -0.817684,-0.3379 -0.316845,0.1125 -0.508111,0.3465 -0.477671,0.5856 z m -72.972546,41.0117 c -0.849869,0.9798 0.118718,2.652 1.439338,2.4846 1.437666,-0.1819 1.958516,-1.8332 0.867805,-2.7507 -0.382137,-0.3216 -1.645399,-0.4657 -1.886973,-0.2092 -0.01593,0.022 -0.207437,0.2358 -0.420853,0.4817 z m 56.722871,-24.0442 c 0.06428,0.1155 0.213983,0.1588 0.333075,0.1 0.121352,-0.058 0.165708,-0.2077 0.102135,-0.3232 -0.06337,-0.1153 -0.214094,-0.1588 -0.333075,-0.1 -0.121964,0.059 -0.165586,0.2076 -0.102147,0.3233 z m 24.610479,-12.5328 c -2.532059,3.2359 -0.01409,7.5768 4.164603,7.1805 1.250788,-0.1183 2.153111,-0.5869 2.949038,-1.5306 2.712447,-3.216 0.217983,-7.7396 -4.045124,-7.3352 -1.295344,0.123 -2.261097,0.6533 -3.068059,1.6859 z m 10.422654,-3.6907 c -0.765566,1.0521 -0.932105,2.8633 -0.358802,3.9029 0.573256,1.0394 2.21878,1.9102 3.545548,1.8766 0.678164,-0.018 1.485391,-0.1637 1.794093,-0.3231 0.308858,-0.1599 0.88133,-0.731 1.272483,-1.2686 0.765554,-1.0521 0.932082,-2.8632 0.358736,-3.9029 -0.163888,-0.2978 -0.751728,-0.8486 -1.305752,-1.2246 -1.084284,-0.7355 -2.956097,-0.8883 -4.03397,-0.3286 -0.308298,0.1607 -0.881231,0.7312 -1.272481,1.2686 z m -1.851375,1.7043 c 0.06428,0.1155 0.214095,0.1588 0.333299,0.1 0.121962,-0.059 0.165646,-0.2076 0.102062,-0.323 -0.06433,-0.1156 -0.214317,-0.1589 -0.333187,-0.1 -0.121963,0.059 -0.165769,0.2078 -0.102146,0.3233 z m -99.850589,55.0778 c -0.849954,0.9801 0.118657,2.652 1.439264,2.4849 1.437655,-0.1818 1.958527,-1.8334 0.867755,-2.7508 -0.382087,-0.3216 -1.645337,-0.4657 -1.887012,-0.2095 -0.01582,0.021 -0.207264,0.2359 -0.420707,0.4815 z m 7.785459,-4.0538 c 0.06338,0.1153 0.214095,0.1588 0.333188,0.1 0.121962,-0.059 0.165707,-0.2076 0.102134,-0.3231 -0.06333,-0.1153 -0.214095,-0.1589 -0.333187,-0.1 -0.121963,0.059 -0.165708,0.2077 -0.102062,0.323 z m 0.445994,0.5548 c -0.183279,0.2266 -0.462123,0.8643 -0.619526,1.4173 -0.238603,0.8364 -0.190579,1.1785 0.283653,2.0385 0.504588,0.915 0.714292,1.0756 1.827025,1.3992 1.116028,0.3249 1.378253,0.3031 2.339054,-0.1955 0.960501,-0.4992 1.124994,-0.6981 1.465956,-1.7789 0.341381,-1.0811 0.319306,-1.3348 -0.191506,-2.2616 -0.506027,-0.9176 -0.720374,-1.0856 -1.773871,-1.392 -1.269426,-0.3692 -2.669262,-0.044 -3.330746,0.7732 z m 107.5217,-50.9406 c -0.18314,0.2264 -0.46199,0.8642 -0.61935,1.4173 -0.23867,0.8366 -0.19075,1.1785 0.2837,2.0387 0.50432,0.9149 0.71421,1.0752 1.82692,1.399 1.11629,0.324 1.37825,0.3031 2.33896,-0.1957 0.96087,-0.4981 1.12505,-0.698 1.46606,-1.7788 0.34138,-1.081 0.32026,-1.3344 -0.19159,-2.2613 -0.50615,-0.9176 -0.72035,-1.0857 -1.77383,-1.3925 -1.26942,-0.3692 -2.66927,-0.044 -3.33078,0.7736 z m -102.406443,56.6598 c -0.795664,1.017 -1.092445,2.0268 -0.969701,3.2985 0.318816,3.3006 4.471431,5.0687 7.2763938,3.0983 l 0.8421951,-0.5913 0.6399281,1.3635 c 2.7873037,5.9383 11.9079777,3.8137 11.7278147,-2.7322 -0.119149,-4.3179 -5.01110903,-7.0439 -8.981033,-5.0039 -0.632904,0.3285 -1.4175482,0.9062 -1.7407554,1.2891 l -0.5875295,0.6968 -0.4332979,-0.7751 c -0.238261,-0.4262 -0.8229547,-1.0591 -1.2990693,-1.4066 -2.121229,-1.5481 -4.9251106,-1.2172 -6.4747876,0.7631 z M 104.88951,1064.45 c -0.2133,0.246 -0.35016,0.7351 -0.30463,1.0868 0.18166,1.3917 1.88582,1.8886 2.84056,0.8284 0.90714,-1.0073 -0.0333,-2.6907 -1.4061,-2.5168 -0.37201,0.048 -0.69127,0.1005 -0.70935,0.1205 -0.0159,0.022 -0.20737,0.2356 -0.42093,0.4813 z m -41.482328,22.2537 c -0.228082,0.1767 -0.535956,0.7355 -0.683765,1.2429 -0.608616,2.0897 1.645528,3.815 3.635457,2.7823 2.003639,-1.04 1.755596,-3.8753 -0.389881,-4.4599 -0.984084,-0.2637 -1.84106,-0.1255 -2.561811,0.4347 z m 14.238255,-6.5018 c 0.06428,0.1155 0.214267,0.1588 0.333248,0.1 0.121963,-0.059 0.165647,-0.2077 0.102146,-0.3233 -0.06428,-0.1155 -0.213983,-0.1588 -0.333137,-0.1 -0.121963,0.059 -0.165708,0.2077 -0.102146,0.3233 z m -6.606712,4.068 c 0.02704,0.2081 0.201693,0.581 0.38894,0.8293 0.282452,0.3734 0.471392,0.383 1.103457,0.053 0.726342,-0.3766 0.743788,-0.4294 0.356956,-1.1311 -0.373047,-0.6764 -0.465393,-0.7112 -1.151449,-0.4332 -0.500014,0.2032 -0.732274,0.4228 -0.697612,0.6802 z m -74.9391141,65.0154 c 0.064281,0.1155 0.2140944,0.1588 0.3331867,0.1 0.1225751,-0.059 0.1656465,-0.2077 0.102085,-0.3233 -0.063325,-0.1153 -0.2139838,-0.1588 -0.3330261,-0.1 -0.1219628,0.059 -0.165708,0.2077 -0.102135,0.3231 z m 8.6606158,-2.9194 c -0.321613,1.239 0.997779,2.2312 2.162997,1.6265 1.115512,-0.5794 0.896499,-2.3335 -0.328049,-2.6259 -0.779382,-0.186 -1.649861,0.2881 -1.834948,0.9994 z m 8.1648793,3.7633 c 0.0837,0.6578 0.636334,0.9507 1.131218,0.5993 0.33287,-0.2361 0.376661,-0.4622 0.163959,-0.8475 -0.212452,-0.3852 -0.430708,-0.4754 -0.817845,-0.3381 -0.316906,0.1125 -0.508294,0.3466 -0.47751,0.5857 z m 50.838748,-23.1607 c 0.02711,0.2079 0.201827,0.5808 0.389083,0.8289 0.28248,0.3737 0.471219,0.383 1.103395,0.053 0.726342,-0.3766 0.743788,-0.4294 0.356966,-1.1312 -0.373147,-0.6766 -0.465453,-0.7112 -1.151509,-0.4332 -0.500331,0.2022 -0.732336,0.4228 -0.697673,0.6803 z m -23.988914,16.8492 c -0.584371,1.8525 1.401032,3.4255 3.166705,2.5091 1.11741,-0.5805 1.512018,-1.8308 0.917511,-2.9089 -0.939205,-1.7034 -3.499955,-1.4527 -4.084227,0.3999 z m -9.774084,10.0366 c 0.06332,0.1153 0.214045,0.1587 0.333138,0.1 0.121963,-0.059 0.165708,-0.2077 0.102123,-0.3231 -0.06433,-0.1156 -0.214094,-0.1588 -0.333187,-0.1 -0.121963,0.059 -0.165647,0.2076 -0.102146,0.3233 z m -16.311118,12.8985 c -0.30494,0.9681 -0.274492,1.2292 0.256096,2.1917 0.874046,1.5851 2.361644,2.0178 4.00467,1.1652 0.99757,-0.5182 1.173799,-0.7193 1.479396,-1.6869 0.30494,-0.9681 0.274492,-1.2291 -0.255986,-2.1916 -0.530769,-0.9625 -0.737772,-1.1322 -1.737286,-1.4229 -0.999463,-0.2906 -1.269791,-0.2595 -2.267406,0.2579 -0.997692,0.5183 -1.173921,0.7194 -1.479495,1.6868 z m 37.136237,-19.5366 c 0.0838,0.658 0.636324,0.9508 1.131208,0.5994 0.33293,-0.2361 0.376622,-0.4623 0.16397,-0.8476 -0.212315,-0.3852 -0.430647,-0.4754 -0.817795,-0.338 -0.316906,0.1125 -0.508172,0.3465 -0.477471,0.5859 z m 10.835842,-3.1234 c -0.244709,0.1967 -0.596804,0.839 -0.782487,1.4278 -0.578821,1.8356 0.305796,3.4551 2.186753,4.0021 1.871176,0.5449 3.552747,-0.3284 4.124425,-2.1406 1.008492,-3.1972 -2.8135,-5.471 -5.528691,-3.2893 z m -49.006712,29.8 c -0.321601,1.2389 0.99799,2.2315 2.163181,1.6264 1.11545,-0.5793 0.896537,-2.3332 -0.328037,-2.626 -0.779383,-0.186 -1.649996,0.2884 -1.835071,0.9995 z m -1.851287,4.9076 c 0.0837,0.6577 0.636163,0.9506 1.131208,0.5994 0.33293,-0.2361 0.376672,-0.4623 0.16397,-0.8477 -0.212402,-0.3851 -0.430708,-0.4753 -0.817856,-0.3379 -0.316845,0.1125 -0.508172,0.3465 -0.477449,0.5857 z m 54.996199,-24.3818 c -0.196888,0.7733 0.510272,2.0118 1.256524,2.1902 0.797746,0.19 2.082855,-0.5034 2.270689,-1.2255 0.1969,-0.7734 -0.510432,-2.012 -1.256524,-2.1902 -0.797656,-0.191 -2.082844,0.5032 -2.27069,1.2255 z m -62.3980273,33.5133 c 0.06428,0.1155 0.214094,0.1588 0.333137,0.1 0.121963,-0.059 0.165708,-0.2076 0.102207,-0.3233 -0.06433,-0.1156 -0.214095,-0.1588 -0.333187,-0.1 -0.121963,0.059 -0.165708,0.2076 -0.102157,0.3234 z"
       id="path3700"
       inkscape:connector-curvature="0" />
    <flowRoot
       xml:space="preserve"
       id="flowRoot3702"
       style="font-size:40px;font-style:normal;font-weight:normal;fill:#000000;fill-opacity:1;stroke:none;font-family:Bitstream Vera Sans"
       transform="matrix(0.68520244,0,0,1,326.10247,1270.72)"><flowRegion
         id="flowRegion3704"><rect
           id="rect3706"
           width="357"
           height="145"
           x="-332"
           y="-201" /></flowRegion><flowPara
         id="flowPara3708"
         style="font-size:36px;font-style:normal;font-variant:normal;font-weight:bold;font-stretch:normal;font-family:Neo Sans Std;-inkscape-font-specification:Neo Sans Std Medium">nificent</flowPara></flowRoot>    <flowRoot
       xml:space="preserve"
       id="flowRoot3710"
       style="font-size:40px;font-style:normal;font-weight:normal;fill:#000000;fill-opacity:1;stroke:none;font-family:Bitstream Vera Sans"
       transform="translate(-4,998.36218)"><flowRegion
         id="flowRegion3712"><rect
           id="rect3714"
           width="88"
           height="71"
           x="-353"
           y="-29" /></flowRegion><flowPara
         id="flowPara3716">MapaM</flowPara></flowRoot>    <flowRoot
       xml:space="preserve"
       id="flowRoot3718"
       style="font-size:40px;font-style:normal;font-weight:normal;fill:#6cca00;fill-opacity:1;stroke:none;font-family:Bitstream Vera Sans"
       transform="translate(471.41683,1153.9634)"><flowRegion
         id="flowRegion3720"><rect
           id="rect3722"
           width="122"
           height="47"
           x="-298"
           y="-37"
           style="fill:#6cca00;fill-opacity:1" /></flowRegion><flowPara
         id="flowPara3724"
         style="font-size:36px;font-style:normal;font-variant:normal;font-weight:bold;font-stretch:normal;fill:#6cca00;fill-opacity:1;font-family:Neo Sans Std;-inkscape-font-specification:Neo Sans Std Medium">Map</flowPara></flowRoot>  </g>
</svg>
