<?xml version="1.0" encoding="UTF-8" standalone="no"?>
<!-- Created with Inkscape (http://www.inkscape.org/) -->

<svg
   xmlns:dc="http://purl.org/dc/elements/1.1/"
   xmlns:cc="http://creativecommons.org/ns#"
   xmlns:rdf="http://www.w3.org/1999/02/22-rdf-syntax-ns#"
   xmlns:svg="http://www.w3.org/2000/svg"
   xmlns="http://www.w3.org/2000/svg"
   xmlns:sodipodi="http://sodipodi.sourceforge.net/DTD/sodipodi-0.dtd"
   xmlns:inkscape="http://www.inkscape.org/namespaces/inkscape"
   width="220"
   height="100"
   id="svg2"
   version="1.1"
   inkscape:version="0.91 r13725"
   sodipodi:docname="mapnificent.svg"
   inkscape:export-filename="/Users/sw/Sites/mapnificent/mapnificent/static/img/mapnificent_big.png"
   inkscape:export-xdpi="392.73001"
   inkscape:export-ydpi="392.73001"
   style="display:inline">
  <defs
     id="defs4">
    <inkscape:perspective
       sodipodi:type="inkscape:persp3d"
       inkscape:vp_x="0 : 526.18109 : 1"
       inkscape:vp_y="0 : 1000 : 0"
       inkscape:vp_z="744.09448 : 526.18109 : 1"
       inkscape:persp3d-origin="372.04724 : 350.78739 : 1"
       id="perspective10" />
    <inkscape:perspective
       id="perspective2920"
       inkscape:persp3d-origin="0.5 : 0.33333333 : 1"
       inkscape:vp_z="1 : 0.5 : 1"
       inkscape:vp_y="0 : 1000 : 0"
       inkscape:vp_x="0 : 0.5 : 1"
       sodipodi:type="inkscape:persp3d" />
    <inkscape:perspective
       id="perspective2850"
       inkscape:persp3d-origin="0.5 : 0.33333333 : 1"
       inkscape:vp_z="1 : 0.5 : 1"
       inkscape:vp_y="0 : 1000 : 0"
       inkscape:vp_x="0 : 0.5 : 1"
       sodipodi:type="inkscape:persp3d" />
  </defs>
  <sodipodi:namedview
     id="base"
     pagecolor="#ffffff"
     bordercolor="#666666"
     borderopacity="1.0"
     inkscape:pageopacity="0.0"
     inkscape:pageshadow="2"
     inkscape:zoom="4.359375"
     inkscape:cx="112.0133"
     inkscape:cy="52.207236"
     inkscape:document-units="px"
     inkscape:current-layer="g4155"
     showgrid="true"
     inkscape:window-width="1680"
     inkscape:window-height="1001"
     inkscape:window-x="0"
     inkscape:window-y="1"
     inkscape:window-maximized="1"
     showguides="true"
     inkscape:guide-bbox="true">
    <inkscape:grid
       type="xygrid"
       id="grid4149" />
    <sodipodi:guide
       position="-15,70"
       orientation="0,1"
       id="guide4151" />
    <sodipodi:guide
       position="40,30"
       orientation="0,1"
       id="guide4153" />
  </sodipodi:namedview>
  <metadata
     id="metadata7">
    <rdf:RDF>
      <cc:Work
         rdf:about="">
        <dc:format>image/svg+xml</dc:format>
        <dc:type
           rdf:resource="http://purl.org/dc/dcmitype/StillImage" />
        <dc:title></dc:title>
      </cc:Work>
    </rdf:RDF>
  </metadata>
  <g
     inkscape:label="Layer 1"
     inkscape:groupmode="layer"
     id="layer1"
     transform="translate(23.379842,-1061.6414)"
     style="display:inline">
    <flowRoot
       xml:space="preserve"
       id="flowRoot3710"
       style="font-style:normal;font-weight:normal;font-size:40px;font-family:'Bitstream Vera Sans';fill:#000000;fill-opacity:1;stroke:none"
       transform="translate(-4,998.36218)"><flowRegion
         id="flowRegion3712"><rect
           id="rect3714"
           width="88"
           height="71"
           x="-353"
           y="-29" /></flowRegion><flowPara
         id="flowPara3716">MapaM</flowPara></flowRoot>    <g
       id="g4155">
      <g
         id="g4176"
         transform="translate(-0.45878136,-0.45878136)">
        <path
           style="fill:#dcdcdc;fill-opacity:1;stroke:none"
           d="m -16.459262,1068.9965 c 0.04406,0.078 0.146733,0.1088 0.228358,0.068 0.08359,-0.041 0.11353,-0.1424 0.06996,-0.2215 -0.04339,-0.079 -0.146557,-0.1095 -0.228325,-0.068 -0.08359,0.041 -0.11353,0.1424 -0.06999,0.2214 z m -2.566647,2.5232 c 0.05747,0.451 0.436146,0.6518 0.775376,0.4109 0.228141,-0.1618 0.258204,-0.3169 0.112381,-0.581 -0.145516,-0.2638 -0.295161,-0.3256 -0.560419,-0.2315 -0.217158,0.078 -0.348289,0.2374 -0.327307,0.4014 z m 3.908303,5.6555 c -0.73469,0.887 -0.330251,2.2072 0.774678,2.5287 1.388952,0.404 2.564483,-0.9847 1.881671,-2.2229 -0.523028,-0.9484 -1.984528,-1.1167 -2.656688,-0.302 z m 14.19292156,-4.3853 c 0.043436,0.078 0.1467346,0.109 0.2283573,0.069 0.083589,-0.041 0.1135298,-0.1424 0.070001,-0.2215 -0.043402,-0.079 -0.1467349,-0.1088 -0.2283576,-0.069 -0.08359,0.041 -0.1135718,0.1424 -0.07,0.2215 z m 2.06825594,3.2671 c 0.05756,0.451 0.436119,0.6516 0.775369,0.411 0.2281807,-0.1618 0.2581417,-0.3171 0.1123797,-0.5809 -0.1455397,-0.264 -0.2952287,-0.3259 -0.5604947,-0.2319 -0.217116,0.078 -0.348204,0.2376 -0.327299,0.4014 z m 1.0967217,2.2983 c -0.7347157,0.8867 -0.3302507,2.2071 0.774652,2.5285 1.3889509,0.404 2.5644829,-0.9847 1.8816629,-2.2229 -0.523014,-0.9484 -1.9845279,-1.1167 -2.6567379,-0.3019 z m -17.9360102,11.1786 c 0.04343,0.079 0.146735,0.1088 0.228358,0.068 0.08359,-0.041 0.113529,-0.1421 0.07,-0.2213 -0.0434,-0.08 -0.146659,-0.1089 -0.228281,-0.068 -0.08359,0.041 -0.113573,0.1423 -0.06996,0.2214 z m 10.1542338,-2.8155 c -0.5247751,0.7209 -0.6388179,1.9622 -0.2459135,2.6748 0.1125273,0.204 0.5152819,0.5819 0.8949282,0.8394 0.7431832,0.5041 2.0260358,0.6089 2.7647448,0.2252 0.7384656,-0.3837 1.36098906,-1.4768 1.34112456,-2.3563 -0.010119,-0.4494 -0.1104913,-0.9838 -0.22306736,-1.1879 -0.1125118,-0.2042 -0.5152248,-0.5819 -0.8949473,-0.8396 -0.743107,-0.504 -2.0260353,-0.6088 -2.7646949,-0.2252 -0.2114247,0.1101 -0.604083,0.5011 -0.872091,0.8695 z m 10.7015163,-3.765 c -0.125598,0.1551 -0.316712,0.5921 -0.42455,0.971 -0.163589,0.5736 -0.130708,0.808 0.194443,1.3974 0.34568,0.627 0.489508,0.7372 1.252111,0.959 0.765077,0.222 0.944841,0.207 1.603143,-0.1342 0.658218,-0.3421 0.771041,-0.4785 1.004694,-1.2194 0.233957,-0.7406 0.218786,-0.9147 -0.131235,-1.5497 -0.34686,-0.629 -0.49376,-0.744 -1.215757,-0.9542 -0.870032,-0.2529 -1.829408,-0.03 -2.282772,0.5301 z m -13.0279556,10.193 c 0.05742,0.4508 0.4361143,0.6513 0.7752311,0.4107 0.2280979,-0.1618 0.2581536,-0.3168 0.1124157,-0.5809 -0.1455748,-0.2639 -0.2952042,-0.3257 -0.5604618,-0.2316 -0.217032,0.078 -0.348246,0.2375 -0.327238,0.4016 z m 14.6532396,-5.8529 c -1.070633,1.3683 -0.893447,3.1836 0.410623,4.2104 0.626706,0.4934 1.360983,0.7543 2.094604,0.7445 l 0.5369,-0.01 -0.36702,0.7273 c -0.380058,0.753 -0.509654,2.0051 -0.290127,2.8001 0.179833,0.6511 -0.215034,0.6277 -0.754549,-0.042 -1.189393,-1.4831 -3.334229,-1.885 -4.9160809,-0.9214 -1.167796,0.7115 -1.7766137,1.7808 -1.7652747,3.1014 l 0.0085,1.0116 -0.81916531,0.5513 c -1.0107338,0.6801 -1.4524786,1.2712 -1.88057253,2.5167 -0.25780086,0.7503 -0.47404706,1.0663 -0.96974486,1.4174 -0.3509327,0.2485 -0.844709,0.8048 -1.0973432,1.236 -0.4411313,0.7529 -0.7258577,2.3806 -0.4910122,2.8068 0.075203,0.1362 0.00711,0.2144 -0.2052805,0.2372 -1.3564022,0.1457 -2.4757302,1.1505 -2.7866643,2.5024 -0.7152939,3.111 3.5675862,4.9991 5.57935606,2.4601 0.2516066,-0.3176 0.52600243,-0.8875 0.60967023,-1.2664 l 0.1519623,-0.6887 0.7273674,0.011 c 1.56995361,0.029 3.03345251,-0.8236 3.79442651,-2.2088 0.263632,-0.4798 0.537442,-0.8397 0.608602,-0.7998 0.07273,0.037 0.433789,0.4604 0.805626,0.9343 0.37189,0.4741 0.920086,1.054 1.218219,1.2888 0.298142,0.2347 0.821866,0.8776 1.163851,1.4286 1.038396,1.6733 2.6800159,2.863 4.5714149,3.3132 1.372046,0.3237 1.518297,0.4714 1.496661,1.4765 -0.01015,0.4738 -0.110996,0.9093 -0.223861,0.968 -0.617912,0.3203 -1.566967,1.6595 -1.879908,2.6518 -1.095429,3.4723 1.935995,6.9995 5.600461,6.5162 0.549055,-0.073 1.052641,-0.1598 1.119046,-0.1944 0.06463,-0.036 0.187232,0.3293 0.268474,0.8082 0.115017,0.6782 0.05186,1.0712 -0.285253,1.775 -0.298958,0.6241 -0.428707,1.2689 -0.419264,2.0837 0.0076,0.6488 -0.06645,1.4341 -0.164388,1.7444 -0.235828,0.7476 -0.206702,1.7641 0.07327,2.5522 0.13794,0.3886 0.146847,0.6817 0.0222,0.7465 -0.113472,0.058 -0.325673,0.4893 -0.473308,0.9574 -0.276933,0.8772 -0.09872,2.1904 0.354951,2.6176 0.194089,0.1828 0.11324,0.2834 -0.573201,0.7136 -0.687185,0.4301 -0.835139,0.6151 -1.056079,1.3154 -0.247324,0.7829 -0.235983,0.8542 0.296272,1.8185 0.533924,0.968 0.583522,1.012 1.414917,1.254 0.831279,0.2418 0.898046,0.2314 1.901635,-0.2893 0.994534,-0.5165 1.051224,-0.5745 1.291116,-1.3351 0.178457,-0.5655 0.181068,-0.9768 0.0096,-1.4226 l -0.241217,-0.6269 0.84886,-0.4221 c 1.064963,-0.5295 1.677789,-1.3097 1.806751,-2.3016 0.0775,-0.5963 0.207872,-0.8156 0.683471,-1.1518 0.777309,-0.5495 1.381887,-1.4117 1.646894,-2.3488 l 0.215769,-0.7629 0.602414,0.3715 c 2.286402,1.4092 4.984821,-0.8971 3.724157,-3.1831 -0.440048,-0.7979 -1.230207,-1.2751 -2.170701,-1.311 l -0.692062,-0.026 0.537738,-0.6918 c 0.633984,-0.8157 1.094245,-2.371 0.963561,-3.2558 -0.09307,-0.6287 -0.04759,-0.7131 0.709274,-1.3162 0.398501,-0.3174 0.412038,-0.313 0.622211,0.2058 0.118149,0.2918 0.415479,0.7151 0.660701,0.9409 0.399018,0.3672 0.437219,0.4878 0.363851,1.1469 -0.04539,0.4051 0.01155,0.9057 0.125845,1.1124 0.444909,0.8042 1.927839,1.2428 2.752987,0.8146 0.759549,-0.3943 1.276286,-1.8595 0.89863,-2.5479 -0.08364,-0.1525 0.03163,-0.4507 0.293792,-0.7618 0.579625,-0.6871 0.743241,-1.1655 0.691454,-2.0216 -0.07372,-1.219 -0.903845,-2.2658 -2.106185,-2.6556 l -0.49717,-0.1617 0.532371,-0.2764 c 0.438728,-0.228 0.582143,-0.2233 0.815643,0.026 0.155734,0.166 0.683396,0.4776 1.172418,0.6922 l 0.889252,0.3904 0.002,0.7823 c 0.0028,1.092 0.916398,2.7628 1.838194,3.3618 0.798675,0.5189 2.192386,0.8644 3.014228,0.7474 l 0.619792,-0.088 0.0047,1.0071 c 0.0062,1.2813 0.364592,1.9383 1.445059,2.649 0.679236,0.4468 1.032811,0.5495 1.855996,0.5398 0.588592,-0.01 1.25404,-0.135 1.58005,-0.3041 0.325941,-0.169 0.805157,-0.6352 1.13774,-1.1062 0.465208,-0.659 0.573132,-1.0015 0.567009,-1.7974 -0.0041,-0.5579 -0.134453,-1.2135 -0.300682,-1.5148 -0.444913,-0.8068 -1.747782,-1.62 -2.657812,-1.6587 l -0.767563,-0.034 0.227365,-0.6605 c 0.386503,-1.1216 0.293958,-2.0143 -0.327058,-3.156 -0.376772,-0.6924 -0.746314,-1.1592 -1.163359,-1.4697 l -0.611327,-0.455 0.204872,-0.8892 c 0.395224,-1.7185 -0.250876,-3.7872 -1.537273,-4.9236 -0.30897,-0.2728 -0.739126,-0.8181 -0.956042,-1.2115 -0.332217,-0.6024 -0.364651,-0.8443 -0.205873,-1.5349 0.103831,-0.4511 0.184897,-1.127 0.180261,-1.5014 -0.0048,-0.3749 0.101401,-0.9721 0.23552,-1.327 0.134217,-0.3552 0.210071,-1.0383 0.169062,-1.5179 l -0.07474,-0.8721 0.607113,-0.1161 c 1.842659,-0.353 2.695161,-3.0129 1.396368,-4.3557 -0.370219,-0.3828 -0.463458,-0.5581 -0.375527,-0.7064 0.07986,-0.134 0.274386,-0.01 0.609962,0.393 1.244339,1.4876 3.509667,1.121 4.071163,-0.659 0.395916,-1.2551 -0.221492,-2.3539 -1.537686,-2.7368 -0.425802,-0.1241 -0.872909,-0.1744 -0.993651,-0.1086 -0.246238,0.1279 -0.419139,-0.073 -0.272406,-0.3169 0.05272,-0.087 0.03157,-0.6027 -0.04711,-1.1444 l -0.143192,-0.9848 0.903578,-0.4069 c 2.878034,-1.2965 3.255302,-5.1799 0.674972,-6.9481 -1.854388,-1.2707 -4.445686,-0.9494 -5.764566,0.7147 l -0.469731,0.5931 -0.257291,-0.5005 c -0.319139,-0.6205 -0.862981,-0.7975 -1.474703,-0.48 -0.588681,0.3058 -0.755766,0.8348 -0.442546,1.4027 0.309202,0.5607 0.858171,0.7281 1.424447,0.4342 l 0.437848,-0.2275 -0.112056,0.7802 c -0.06176,0.4291 -0.09891,0.8547 -0.08305,0.9459 0.01757,0.099 -0.283375,0.2126 -0.744667,0.2818 -1.965368,0.2956 -3.629531,1.7454 -4.221821,3.6779 -0.349593,1.1406 -0.373217,1.1731 -0.688716,0.9409 -0.485279,-0.3571 -1.955144,-0.8961 -3.005155,-1.1021 -1.146052,-0.2248 -1.187822,-0.2593 -0.834581,-0.7067 0.686235,-0.8681 0.204859,-2.5924 -0.898709,-3.2189 -1.885355,-1.0704 -4.404332,1.0815 -3.399343,2.9039 0.181633,0.3292 0.143793,0.3978 -0.365265,0.662 l -0.567816,0.2947 -0.427489,-0.7937 c -0.392749,-0.7291 -0.49743,-0.8139 -1.289215,-1.0446 -0.763308,-0.2223 -0.945654,-0.2072 -1.597364,0.1315 -0.630509,0.3267 -0.771,0.4878 -0.982321,1.1222 l -0.246583,0.7401 -0.55744,-0.5624 c -0.683609,-0.6898 -1.945947,-1.3641 -2.733396,-1.4602 -0.490347,-0.064 -0.634636,-0.1701 -0.879193,-0.656 -0.343165,-0.6872 -0.828166,-0.8868 -1.469254,-0.6048 -0.24246,0.1068 -0.887534,0.1591 -1.433398,0.1167 -0.545898,-0.043 -1.126962,-0.01 -1.291134,0.078 -0.263497,0.1373 -0.273975,0.072 -0.08722,-0.5568 0.413302,-1.3916 0.04122,-2.6109 -1.037407,-3.3981 -1.4537939,-1.0612 -3.3752879,-0.8351 -4.4375749,0.5228 z m 25.4691339,33.3002 c 0.09294,0.056 0.06298,0.1525 -0.06995,0.2214 -0.132948,0.069 -0.235826,0.039 -0.228282,-0.068 0.0071,-0.1057 0.03867,-0.2054 0.07,-0.2216 0.03064,-0.017 0.134051,0.014 0.228281,0.068 z m -34.5979695,-25.3856 c -0.5824862,0.6714 0.081317,1.8175 0.9864936,1.7029 0.98536579,-0.1245 1.34233159,-1.2566 0.59474416,-1.8854 -0.26199026,-0.2203 -1.12774696,-0.3191 -1.29330806,-0.1436 -0.010918,0.014 -0.1421218,0.1615 -0.2884601,0.33 z m 28.1808175,-13.7864 c -0.06056,0.1915 -0.04346,0.4685 0.03768,0.6155 0.0811,0.1472 0.309227,0.3146 0.506949,0.3721 0.196983,0.059 0.484201,0.04 0.636906,-0.036 0.152346,-0.078 0.326641,-0.3006 0.387087,-0.4921 0.06051,-0.1915 0.04339,-0.4683 -0.03775,-0.6155 -0.08111,-0.1471 -0.309263,-0.3146 -0.506935,-0.3721 -0.196984,-0.059 -0.484257,-0.039 -0.63695,0.036 -0.152644,0.079 -0.326667,0.3004 -0.387028,0.492 z m -35.5282356,20.7423 c 0.0434,0.079 0.146658,0.1089 0.2282051,0.068 0.08359,-0.041 0.113614,-0.1424 0.06999,-0.2214 -0.04326,-0.08 -0.146659,-0.1087 -0.2282821,-0.068 -0.08359,0.041 -0.113613,0.1423 -0.07,0.2215 z m 29.6510916,-14.8339 c 0.04343,0.079 0.146692,0.1091 0.228357,0.068 0.08016,-0.047 0.113489,-0.1424 0.07,-0.2215 -0.04406,-0.079 -0.146734,-0.1088 -0.228356,-0.068 -0.08359,0.041 -0.113614,0.1424 -0.07001,0.2217 z m -19.81918321,11.7687 c 0.044057,0.079 0.1467345,0.1089 0.2283579,0.068 0.083591,-0.041 0.1135291,-0.1421 0.070011,-0.2215 -0.043436,-0.079 -0.1466583,-0.1088 -0.2283569,-0.068 -0.083591,0.041 -0.1135719,0.1423 -0.070002,0.2214 z M 26.150987,1086.2291 c -0.194546,0.6173 -0.17779,0.862 0.09601,1.3579 0.273475,0.496 0.473743,0.6457 1.111257,0.8313 0.637599,0.1856 0.890685,0.1675 1.404826,-0.098 0.514107,-0.2668 0.66991,-0.4612 0.8647,-1.0788 0.194502,-0.6174 0.177732,-0.8618 -0.09606,-1.3579 -0.273476,-0.4959 -0.473736,-0.6458 -1.111285,-0.8313 -0.637703,-0.1852 -0.890684,-0.1677 -1.404875,0.098 -0.514106,0.2668 -0.669909,0.4612 -0.86465,1.0787 z m 17.637547,-8.4079 c 0.05746,0.4511 0.43616,0.6516 0.775375,0.4108 0.22814,-0.1618 0.258169,-0.3168 0.112381,-0.5809 -0.145565,-0.2638 -0.295211,-0.3256 -0.560419,-0.2317 -0.217157,0.078 -0.348247,0.2375 -0.327383,0.4014 z m -50.0134776,28.1083 c -0.5824781,0.6716 0.081366,1.8177 0.9864847,1.7029 0.9853388,-0.1247 1.3423157,-1.2565 0.5947709,-1.8853 -0.2619067,-0.2205 -1.1277135,-0.3191 -1.293282,-0.1434 -0.010919,0.014 -0.142172,0.1616 -0.2884416,0.3302 z M 32.65143,1089.4503 c 0.04406,0.078 0.146659,0.1088 0.228281,0.068 0.08317,-0.04 0.113572,-0.1424 0.07,-0.2216 -0.04343,-0.079 -0.146734,-0.1087 -0.228281,-0.068 -0.08359,0.041 -0.113488,0.1424 -0.07,0.2217 z m 16.867381,-8.5897 c -1.735408,2.2178 -0.0097,5.193 2.85431,4.9214 0.857257,-0.081 1.475686,-0.4023 2.021192,-1.0492 1.859042,-2.2041 0.149401,-5.3045 -2.772421,-5.0273 -0.887795,0.084 -1.549697,0.4478 -2.102768,1.1556 z m 7.143415,-2.5295 c -0.5247,0.7211 -0.638841,1.9625 -0.245913,2.6749 0.392894,0.7124 1.520692,1.3092 2.430024,1.2862 0.464797,-0.013 1.018049,-0.1121 1.229625,-0.2214 0.211683,-0.1097 0.604041,-0.501 0.872127,-0.8696 0.524691,-0.7209 0.638824,-1.9622 0.245869,-2.6749 -0.112325,-0.204 -0.515216,-0.5815 -0.89493,-0.8392 -0.743139,-0.5041 -2.026031,-0.6089 -2.764777,-0.2253 -0.2113,0.1102 -0.603972,0.5012 -0.872125,0.8695 z m -1.268885,1.168 c 0.04406,0.079 0.146736,0.109 0.228435,0.068 0.08359,-0.041 0.113529,-0.1423 0.06996,-0.2214 -0.04409,-0.079 -0.146889,-0.109 -0.228358,-0.068 -0.08359,0.041 -0.113615,0.1423 -0.07001,0.2214 z m -68.434986,37.749 c -0.582536,0.6717 0.08132,1.8175 0.986434,1.703 0.985331,-0.1246 1.342323,-1.2565 0.594737,-1.8853 -0.261873,-0.2204 -1.127671,-0.3191 -1.293309,-0.1436 -0.01084,0.014 -0.142053,0.1617 -0.288342,0.33 z m 5.3359505,-2.7784 c 0.04344,0.079 0.146735,0.1089 0.228358,0.068 0.08359,-0.041 0.1135716,-0.1423 0.07,-0.2215 -0.043405,-0.079 -0.1467353,-0.1088 -0.2283573,-0.068 -0.08359,0.041 -0.113572,0.1424 -0.06995,0.2214 z m 0.3056725,0.3802 c -0.1256145,0.1553 -0.3167265,0.5924 -0.4246065,0.9714 -0.163532,0.5732 -0.130618,0.8077 0.194408,1.3972 0.3458315,0.6271 0.4895571,0.7371 1.2521952,0.9589 0.7648965,0.2227 0.9446186,0.2078 1.6031266,-0.1339 0.6583023,-0.3421 0.7710415,-0.4786 1.0047279,-1.2193 0.2339737,-0.741 0.218844,-0.9149 -0.1312532,-1.5501 -0.3468177,-0.6288 -0.4937255,-0.7439 -1.2157649,-0.9539 -0.8700314,-0.253 -1.8294424,-0.03 -2.2828062,0.5299 z m 73.692565,-34.9134 c -0.125519,0.1553 -0.316636,0.5923 -0.424486,0.9714 -0.163578,0.5734 -0.130735,0.8078 0.194441,1.3974 0.345648,0.627 0.489501,0.7368 1.252122,0.9588 0.765077,0.222 0.944618,0.2078 1.603064,-0.1341 0.658554,-0.3414 0.771079,-0.4784 1.004798,-1.2191 0.233973,-0.741 0.219498,-0.9147 -0.13131,-1.5499 -0.346903,-0.629 -0.493711,-0.7441 -1.215737,-0.9544 -0.870027,-0.2531 -1.829448,-0.03 -2.28283,0.5301 z m -70.1867013,38.8332 c -0.5453274,0.697 -0.7487333,1.389 -0.6646078,2.2608 0.2185082,2.262 3.064602,3.4738 4.98705019,2.1234 l 0.57721911,-0.4052 0.4385903,0.9344 c 1.9103447,4.07 8.1614156,2.6138 8.0379366,-1.8725 -0.08166,-2.9595 -3.434483,-4.8278 -6.1553639,-3.4296 -0.433776,0.2252 -0.971552,0.6211 -1.193069,0.8836 l -0.4026777,0.4775 -0.296971,-0.5312 c -0.163297,-0.2922 -0.56403121,-0.7259 -0.89034801,-0.9641 -1.45383493,-1.061 -3.37554239,-0.8342 -4.43765059,0.5231 z m 81.2314913,-40.6516 c -0.146188,0.1686 -0.239985,0.5039 -0.208783,0.745 0.124508,0.9538 1.292493,1.2943 1.946851,0.5677 0.621733,-0.6903 -0.02279,-1.844 -0.963706,-1.7249 -0.254963,0.033 -0.473775,0.069 -0.486166,0.082 -0.01089,0.014 -0.142133,0.1615 -0.288504,0.3299 z m -28.430899,15.2521 c -0.156322,0.1212 -0.36733,0.5042 -0.468634,0.8521 -0.41713,1.4321 1.127802,2.6145 2.491647,1.9068 1.373242,-0.7128 1.20324,-2.6561 -0.267214,-3.0567 -0.674466,-0.1807 -1.261814,-0.086 -1.755799,0.2978 z m 9.758529,-4.4561 c 0.04406,0.079 0.146853,0.1088 0.2284,0.068 0.08359,-0.041 0.113529,-0.1424 0.07,-0.2216 -0.04406,-0.079 -0.146658,-0.1089 -0.228324,-0.068 -0.08359,0.041 -0.113571,0.1424 -0.07001,0.2215 z m -4.528069,2.7882 c 0.01854,0.1426 0.138236,0.3981 0.26657,0.5683 0.193585,0.2559 0.32308,0.2625 0.75628,0.036 0.497816,-0.2582 0.509774,-0.2943 0.244649,-0.7752 -0.255678,-0.4635 -0.318968,-0.4875 -0.789173,-0.2969 -0.342697,0.1393 -0.501882,0.2898 -0.478126,0.4662 z m -51.3613108,44.5598 c 0.04406,0.079 0.146735,0.1089 0.228357,0.068 0.08401,-0.041 0.11353,-0.1423 0.06997,-0.2216 -0.0434,-0.078 -0.146658,-0.1088 -0.228247,-0.068 -0.08359,0.041 -0.113572,0.1423 -0.07,0.2214 z m 5.9357589,-2.0009 c -0.220424,0.8492 0.683852,1.5292 1.4824619,1.1148 0.764543,-0.3972 0.614437,-1.5993 -0.2248359,-1.7998 -0.534169,-0.1274 -1.130772,0.1975 -1.257626,0.685 z m 5.5959959,2.5793 c 0.05736,0.4509 0.436125,0.6515 0.775307,0.4107 0.22814,-0.1617 0.258153,-0.3167 0.112373,-0.5808 -0.145608,-0.2641 -0.295196,-0.3259 -0.56053,-0.2318 -0.217198,0.078 -0.348371,0.2377 -0.327272,0.4014 z m 34.843551,-15.8736 c 0.01857,0.1423 0.138327,0.3979 0.266666,0.5679 0.193605,0.2562 0.322961,0.2626 0.756238,0.036 0.497816,-0.258 0.509773,-0.2942 0.244656,-0.7752 -0.255746,-0.4637 -0.319009,-0.4874 -0.789215,-0.2969 -0.342914,0.1385 -0.501923,0.2898 -0.478166,0.4662 z m -16.441376,11.5479 c -0.400513,1.2696 0.96023,2.3477 2.170377,1.7196 0.765844,-0.3979 1.036298,-1.2548 0.628838,-1.9936 -0.643707,-1.1675 -2.398777,-0.9957 -2.799222,0.274 z m -6.698902,6.8788 c 0.0434,0.079 0.146701,0.1088 0.228323,0.068 0.08359,-0.041 0.113572,-0.1422 0.06999,-0.2213 -0.04409,-0.079 -0.146734,-0.109 -0.228357,-0.068 -0.08359,0.041 -0.11353,0.1423 -0.07,0.2216 z m -11.179216,8.8403 c -0.208996,0.6634 -0.188128,0.8425 0.175523,1.5021 0.599048,1.0864 1.618609,1.383 2.744696,0.7987 0.683709,-0.3552 0.804492,-0.493 1.013939,-1.1563 0.208998,-0.6634 0.188129,-0.8424 -0.175445,-1.502 -0.363776,-0.6597 -0.50565,-0.776 -1.190692,-0.9753 -0.685004,-0.1991 -0.870281,-0.1779 -1.55402,0.1769 -0.683792,0.3551 -0.804575,0.493 -1.014007,1.156 z m 25.452208,-13.39 c 0.05744,0.451 0.436121,0.6518 0.775301,0.4109 0.228181,-0.1617 0.258127,-0.3169 0.11238,-0.5808 -0.145514,-0.2641 -0.295154,-0.3259 -0.560494,-0.2319 -0.2172,0.078 -0.348288,0.2376 -0.327247,0.4017 z m 7.426604,-2.1406 c -0.167718,0.1348 -0.409033,0.5749 -0.536297,0.9786 -0.396709,1.258 0.209586,2.368 1.498745,2.7429 1.282454,0.3735 2.434958,-0.2251 2.826773,-1.4671 0.691194,-2.1912 -1.9283,-3.7497 -3.789221,-2.2544 z m -33.587921,20.4242 c -0.220418,0.8491 0.683996,1.5293 1.482588,1.1146 0.7645,-0.397 0.614462,-1.5992 -0.224828,-1.7998 -0.534168,-0.1275 -1.130865,0.1977 -1.25771,0.6851 z m -1.268824,3.3635 c 0.05737,0.4507 0.43601,0.6515 0.775301,0.4107 0.228181,-0.1618 0.258161,-0.3167 0.11238,-0.5809 -0.145575,-0.2639 -0.295196,-0.3257 -0.560537,-0.2315 -0.217158,0.078 -0.348288,0.2374 -0.327232,0.4014 z m 37.692959,-16.7106 c -0.134941,0.5299 0.349727,1.3787 0.861188,1.501 0.546755,0.1303 1.427535,-0.345 1.556272,-0.84 0.13495,-0.53 -0.349837,-1.3788 -0.86119,-1.501 -0.546692,-0.1309 -1.427526,0.3449 -1.556271,0.84 z m -42.7659789,22.9691 c 0.04406,0.079 0.146735,0.1088 0.228324,0.068 0.08359,-0.041 0.113572,-0.1423 0.07005,-0.2216 -0.04409,-0.078 -0.146734,-0.1087 -0.228358,-0.068 -0.08359,0.041 -0.11357,0.1423 -0.07001,0.2218 z"
           id="path3700"
           inkscape:connector-curvature="0" />
        <g
           id="g4166">
          <flowRoot
             transform="translate(391.05149,1288.3043)"
             style="font-style:normal;font-weight:normal;font-size:40px;font-family:'Bitstream Vera Sans';fill:#000000;fill-opacity:1;stroke:none"
             id="flowRoot3702"
             xml:space="preserve"><flowRegion
               id="flowRegion3704"><rect
                 y="-201"
                 x="-332"
                 height="145"
                 width="357"
                 id="rect3706" /></flowRegion><flowPara
               style="font-style:normal;font-variant:normal;font-weight:500;font-stretch:normal;font-size:36px;font-family:NeoSans;-inkscape-font-specification:'NeoSans Medium'"
               id="flowPara3708">nificent</flowPara></flowRoot>          <flowRoot
             transform="translate(287.97149,1124.4643)"
             style="font-style:normal;font-weight:normal;font-size:40px;font-family:'Bitstream Vera Sans';fill:#6cca00;fill-opacity:1;stroke:none"
             id="flowRoot3718"
             xml:space="preserve"><flowRegion
               id="flowRegion3720"><rect
                 style="fill:#6cca00;fill-opacity:1"
                 y="-37"
                 x="-298"
                 height="47"
                 width="122"
                 id="rect3722" /></flowRegion><flowPara
               style="font-style:normal;font-variant:normal;font-weight:500;font-stretch:normal;font-size:36px;font-family:NeoSans;-inkscape-font-specification:'NeoSans Medium';fill:#6cca00;fill-opacity:1"
               id="flowPara3724">Map</flowPara></flowRoot>        </g>
      </g>
    </g>
  </g>
</svg>
