<?xml version="1.0" encoding="UTF-8" standalone="no"?>
<!-- Created with Inkscape (http://www.inkscape.org/) -->

<svg
   xmlns:dc="http://purl.org/dc/elements/1.1/"
   xmlns:cc="http://creativecommons.org/ns#"
   xmlns:rdf="http://www.w3.org/1999/02/22-rdf-syntax-ns#"
   xmlns:svg="http://www.w3.org/2000/svg"
   xmlns="http://www.w3.org/2000/svg"
   xmlns:xlink="http://www.w3.org/1999/xlink"
   xmlns:sodipodi="http://sodipodi.sourceforge.net/DTD/sodipodi-0.dtd"
   xmlns:inkscape="http://www.inkscape.org/namespaces/inkscape"
   width="140"
   height="127"
   id="svg2"
   sodipodi:version="0.32"
   inkscape:version="0.48+devel r9695"
   sodipodi:docname="Crystal_Clear_action_run.svg"
   inkscape:output_extension="org.inkscape.output.svg.inkscape"
   version="1.0"
   inkscape:export-filename="/Users/sw/Sites/mapnificent/mapnificent/media/img/settings.png"
   inkscape:export-xdpi="21.788591"
   inkscape:export-ydpi="21.788591">
  <sodipodi:namedview
     id="base"
     pagecolor="#ffffff"
     bordercolor="#666666"
     borderopacity="1.0"
     gridtolerance="10000"
     guidetolerance="10"
     objecttolerance="10"
     inkscape:pageopacity="0.0"
     inkscape:pageshadow="2"
     inkscape:zoom="1.4"
     inkscape:cx="-28.842276"
     inkscape:cy="126.71968"
     inkscape:document-units="px"
     inkscape:current-layer="layer1"
     showgrid="false"
     inkscape:window-width="1280"
     inkscape:window-height="778"
     inkscape:window-x="0"
     inkscape:window-y="0"
     showguides="true"
     inkscape:guide-bbox="true"
     inkscape:window-maximized="0" />
  <defs
     id="defs4">
    <linearGradient
       inkscape:collect="always"
       id="linearGradient5249">
      <stop
         style="stop-color:#77bb00;stop-opacity:1;"
         offset="0"
         id="stop5251" />
      <stop
         style="stop-color:#77bb00;stop-opacity:0;"
         offset="1"
         id="stop5253" />
    </linearGradient>
    <linearGradient
       id="linearGradient3812">
      <stop
         style="stop-color:#2e2e2e;stop-opacity:1;"
         offset="0"
         id="stop3814" />
      <stop
         style="stop-color:#000000;stop-opacity:0;"
         offset="1"
         id="stop3816" />
    </linearGradient>
    <linearGradient
       inkscape:collect="always"
       id="linearGradient3644">
      <stop
         style="stop-color:#000000;stop-opacity:1;"
         offset="0"
         id="stop3646" />
      <stop
         style="stop-color:#000000;stop-opacity:0;"
         offset="1"
         id="stop3648" />
    </linearGradient>
    <linearGradient
       id="linearGradient3299">
      <stop
         style="stop-color:#6a7390;stop-opacity:1;"
         offset="0"
         id="stop3301" />
      <stop
         style="stop-color:#eaebef;stop-opacity:1;"
         offset="1"
         id="stop3303" />
    </linearGradient>
    <linearGradient
       id="linearGradient3283">
      <stop
         style="stop-color:#ffffff;stop-opacity:0.78688526;"
         offset="0"
         id="stop3285" />
      <stop
         style="stop-color:#ffffff;stop-opacity:0;"
         offset="1"
         id="stop3287" />
    </linearGradient>
    <inkscape:perspective
       sodipodi:type="inkscape:persp3d"
       inkscape:vp_x="0 : 526.18109 : 1"
       inkscape:vp_y="0 : 1000 : 0"
       inkscape:vp_z="744.09448 : 526.18109 : 1"
       inkscape:persp3d-origin="372.04724 : 350.78739 : 1"
       id="perspective10" />
    <inkscape:perspective
       sodipodi:type="inkscape:persp3d"
       inkscape:vp_x="0 : 526.18109 : 1"
       inkscape:vp_y="0 : 1000 : 0"
       inkscape:vp_z="744.09448 : 526.18109 : 1"
       inkscape:persp3d-origin="372.04724 : 350.78739 : 1"
       id="perspective2463" />
    <filter
       inkscape:collect="always"
       id="filter3525">
      <feGaussianBlur
         inkscape:collect="always"
         stdDeviation="3.1093332"
         id="feGaussianBlur3527" />
    </filter>
    <linearGradient
       inkscape:collect="always"
       xlink:href="#linearGradient3283"
       id="linearGradient3555"
       gradientUnits="userSpaceOnUse"
       x1="263.30957"
       y1="517.92938"
       x2="254.34146"
       y2="540.2486" />
    <linearGradient
       inkscape:collect="always"
       xlink:href="#linearGradient3644"
       id="linearGradient3650"
       x1="128.4258"
       y1="498.07144"
       x2="128.4258"
       y2="527.55396"
       gradientUnits="userSpaceOnUse" />
    <filter
       inkscape:collect="always"
       id="filter3808">
      <feGaussianBlur
         inkscape:collect="always"
         stdDeviation="1.8874999"
         id="feGaussianBlur3810" />
    </filter>
    <linearGradient
       inkscape:collect="always"
       xlink:href="#linearGradient3812"
       id="linearGradient3818"
       x1="377.50214"
       y1="507.22119"
       x2="377.50214"
       y2="534.16211"
       gradientUnits="userSpaceOnUse" />
    <linearGradient
       inkscape:collect="always"
       xlink:href="#linearGradient5249"
       id="linearGradient5255"
       x1="387.24332"
       y1="578.20319"
       x2="386.9437"
       y2="450.34601"
       gradientUnits="userSpaceOnUse" />
  </defs>
  <metadata
     id="metadata7">
    <rdf:RDF>
      <cc:Work
         rdf:about="">
        <dc:format>image/svg+xml</dc:format>
        <dc:type
           rdf:resource="http://purl.org/dc/dcmitype/StillImage" />
        <dc:title></dc:title>
      </cc:Work>
    </rdf:RDF>
  </metadata>
  <g
     inkscape:label="Layer 1"
     inkscape:groupmode="layer"
     id="layer1"
     transform="translate(-327.5625,-481.71875)">
    <g
       id="g3388"
       transform="translate(3.1990954,3.6741126)"
       style="fill:url(#linearGradient5255);fill-opacity:1;stroke:none">
      <g
         id="g3313"
         style="fill:url(#linearGradient5255);fill-opacity:1;stroke:none">
        <path
           style="fill:url(#linearGradient5255);fill-opacity:1;stroke:none;stroke-width:0.50000000000000000;stroke-miterlimit:4;stroke-dasharray:none;filter:url(#filter3525)"
           d="M 369.21912,481.71875 L 367.06287,488.3125 L 367.06287,488.5 C 363.71743,488.93847 360.51429,489.78098 357.50037,491.03125 L 357.43787,490.90625 L 352.25037,486.25 L 347.37537,489.0625 L 348.78162,495.875 L 348.87537,496.03125 C 346.25326,498.04811 343.92478,500.41019 341.90662,503.03125 L 341.75037,502.9375 L 334.93787,501.5 L 332.12537,506.375 L 336.75037,511.5625 L 336.90662,511.625 C 335.65802,514.63451 334.78336,517.84732 334.34412,521.1875 L 334.18787,521.1875 L 327.56287,523.34375 L 327.56287,529 L 334.18787,531.15625 L 334.34412,531.15625 C 334.7826,534.50289 335.65578,537.70386 336.90662,540.71875 L 336.75037,540.8125 L 332.12537,545.96875 L 334.93787,550.875 L 341.75037,549.4375 L 341.87537,549.34375 C 343.89615,551.97096 346.24816,554.32297 348.87537,556.34375 L 348.78162,556.5 L 347.37537,563.28125 L 352.25037,566.09375 L 357.43787,561.46875 L 357.53162,561.3125 C 360.53821,562.55718 363.72677,563.43775 367.06287,563.875 L 367.06287,564.0625 L 369.21912,570.65625 L 374.87537,570.65625 L 377.03162,564.0625 L 377.03162,563.875 C 380.36772,563.43775 383.55628,562.55718 386.56287,561.3125 L 386.65662,561.46875 L 391.84412,566.09375 L 396.71912,563.28125 L 395.31287,556.5 L 395.21912,556.34375 C 397.84633,554.32297 400.19834,551.97096 402.21912,549.34375 L 402.34412,549.4375 L 409.15662,550.875 L 411.96912,545.96875 L 407.34412,540.8125 L 407.18787,540.71875 C 408.43871,537.70386 409.31189,534.50289 409.75037,531.15625 L 409.90662,531.15625 L 416.53162,529 L 416.53162,523.34375 L 409.90662,521.1875 L 409.75037,521.1875 C 409.31112,517.84732 408.43647,514.63451 407.18787,511.625 L 407.34412,511.5625 L 411.96912,506.375 L 409.15662,501.5 L 402.34412,502.9375 L 402.18787,503.03125 C 400.16971,500.41019 397.84123,498.04811 395.21912,496.03125 L 395.31287,495.875 L 396.71912,489.0625 L 391.84412,486.25 L 386.65662,490.90625 L 386.59412,491.03125 C 383.5802,489.78098 380.37706,488.93847 377.03162,488.5 L 377.03162,488.3125 L 374.87537,481.71875 L 369.21912,481.71875 z M 372.06287,492.4375 C 390.69286,492.43751 405.81287,507.55751 405.81287,526.1875 C 405.81288,544.81748 390.69287,559.9375 372.06287,559.9375 C 353.43285,559.93748 338.31287,544.8175 338.31287,526.1875 C 338.31287,507.55748 353.43287,492.4375 372.06287,492.4375 z"
           id="path3495" />
        <path
           id="path2479"
           d="M 369.21912,481.71875 L 367.06287,488.3125 L 367.06287,488.5 C 363.71743,488.93847 360.51429,489.78098 357.50037,491.03125 L 357.43787,490.90625 L 352.25037,486.25 L 347.37537,489.0625 L 348.78162,495.875 L 348.87537,496.03125 C 346.25326,498.04811 343.92478,500.41019 341.90662,503.03125 L 341.75037,502.9375 L 334.93787,501.5 L 332.12537,506.375 L 336.75037,511.5625 L 336.90662,511.625 C 335.65802,514.63451 334.78336,517.84732 334.34412,521.1875 L 334.18787,521.1875 L 327.56287,523.34375 L 327.56287,529 L 334.18787,531.15625 L 334.34412,531.15625 C 334.7826,534.50289 335.65578,537.70386 336.90662,540.71875 L 336.75037,540.8125 L 332.12537,545.96875 L 334.93787,550.875 L 341.75037,549.4375 L 341.87537,549.34375 C 343.89615,551.97096 346.24816,554.32297 348.87537,556.34375 L 348.78162,556.5 L 347.37537,563.28125 L 352.25037,566.09375 L 357.43787,561.46875 L 357.53162,561.3125 C 360.53821,562.55718 363.72677,563.43775 367.06287,563.875 L 367.06287,564.0625 L 369.21912,570.65625 L 374.87537,570.65625 L 377.03162,564.0625 L 377.03162,563.875 C 380.36772,563.43775 383.55628,562.55718 386.56287,561.3125 L 386.65662,561.46875 L 391.84412,566.09375 L 396.71912,563.28125 L 395.31287,556.5 L 395.21912,556.34375 C 397.84633,554.32297 400.19834,551.97096 402.21912,549.34375 L 402.34412,549.4375 L 409.15662,550.875 L 411.96912,545.96875 L 407.34412,540.8125 L 407.18787,540.71875 C 408.43871,537.70386 409.31189,534.50289 409.75037,531.15625 L 409.90662,531.15625 L 416.53162,529 L 416.53162,523.34375 L 409.90662,521.1875 L 409.75037,521.1875 C 409.31112,517.84732 408.43647,514.63451 407.18787,511.625 L 407.34412,511.5625 L 411.96912,506.375 L 409.15662,501.5 L 402.34412,502.9375 L 402.18787,503.03125 C 400.16971,500.41019 397.84123,498.04811 395.21912,496.03125 L 395.31287,495.875 L 396.71912,489.0625 L 391.84412,486.25 L 386.65662,490.90625 L 386.59412,491.03125 C 383.5802,489.78098 380.37706,488.93847 377.03162,488.5 L 377.03162,488.3125 L 374.87537,481.71875 L 369.21912,481.71875 z M 372.06287,492.4375 C 390.69286,492.43751 405.81287,507.55751 405.81287,526.1875 C 405.81288,544.81748 390.69287,559.9375 372.06287,559.9375 C 353.43285,559.93748 338.31287,544.8175 338.31287,526.1875 C 338.31287,507.55748 353.43287,492.4375 372.06287,492.4375 z"
           style="fill:url(#linearGradient5255);fill-opacity:1;stroke:none;stroke-width:0.50000000000000000;stroke-miterlimit:4;stroke-dasharray:none" />
        <path
           sodipodi:type="arc"
           style="fill:url(#linearGradient5255);fill-opacity:1;stroke:none;stroke-width:0.39528795999999999;stroke-linecap:round;stroke-linejoin:miter;stroke-miterlimit:4;stroke-dasharray:none;stroke-dashoffset:0;stroke-opacity:1"
           id="path3331"
           sodipodi:cx="256.25"
           sodipodi:cy="531.11218"
           sodipodi:rx="26.964285"
           sodipodi:ry="26.964285"
           d="m 283.21428,531.11218 c 0,14.89197 -12.07232,26.96429 -26.96428,26.96429 -14.89196,0 -26.96428,-12.07232 -26.96428,-26.96429 0,-14.89196 12.07232,-26.96428 26.96428,-26.96428 14.89196,0 26.96428,12.07232 26.96428,26.96428 z"
           transform="matrix(1.2649007,0,0,1.2649007,47.916443,-145.62307)" />
        <path
           transform="matrix(1.1192053,0,0,1.1192053,85.250881,-68.242483)"
           d="m 283.21428,531.11218 c 0,14.89197 -12.07232,26.96429 -26.96428,26.96429 -14.89196,0 -26.96428,-12.07232 -26.96428,-26.96429 0,-14.89196 12.07232,-26.96428 26.96428,-26.96428 14.89196,0 26.96428,12.07232 26.96428,26.96428 z"
           sodipodi:ry="26.964285"
           sodipodi:rx="26.964285"
           sodipodi:cy="531.11218"
           sodipodi:cx="256.25"
           id="path3267"
           style="fill:url(#linearGradient5255);fill-opacity:1;stroke:none;stroke-width:0.44674556999999998;stroke-linecap:round;stroke-linejoin:miter;stroke-miterlimit:4;stroke-dasharray:none;stroke-dashoffset:0;stroke-opacity:1"
           sodipodi:type="arc" />
        <g
           id="g3627"
           style="fill:url(#linearGradient5255);fill-opacity:1;stroke:none">
          <path
             sodipodi:type="arc"
             style="fill:url(#linearGradient5255);fill-opacity:1;stroke:none;stroke-width:0.95569605000000002;stroke-linecap:round;stroke-linejoin:miter;stroke-miterlimit:4;stroke-dasharray:none;stroke-dashoffset:0;stroke-opacity:1"
             id="path3281"
             sodipodi:cx="256.25"
             sodipodi:cy="531.11218"
             sodipodi:rx="26.964285"
             sodipodi:ry="26.964285"
             d="m 283.21428,531.11218 c 0,14.89197 -12.07232,26.96429 -26.96428,26.96429 -14.89196,0 -26.96428,-12.07232 -26.96428,-26.96429 0,-14.89196 12.07232,-26.96428 26.96428,-26.96428 14.89196,0 26.96428,12.07232 26.96428,26.96428 z"
             transform="matrix(0.5231788,0,0,0.5231788,237.98267,248.31446)" />
          <path
             transform="matrix(0.5231788,0,0,0.5231788,237.98267,248.31446)"
             d="m 283.21428,531.11218 c 0,14.89197 -12.07232,26.96429 -26.96428,26.96429 -14.89196,0 -26.96428,-12.07232 -26.96428,-26.96429 0,-14.89196 12.07232,-26.96428 26.96428,-26.96428 14.89196,0 26.96428,12.07232 26.96428,26.96428 z"
             sodipodi:ry="26.964285"
             sodipodi:rx="26.964285"
             sodipodi:cy="531.11218"
             sodipodi:cx="256.25"
             id="path3557"
             style="fill:url(#linearGradient5255);fill-opacity:1;stroke:none;stroke-width:0.95569605000000002;stroke-linecap:round;stroke-linejoin:miter;stroke-miterlimit:4;stroke-dasharray:none;stroke-dashoffset:0;stroke-opacity:1"
             sodipodi:type="arc" />
        </g>
        <path
           sodipodi:type="arc"
           style="fill:url(#linearGradient5255);fill-opacity:1;stroke:none;stroke-width:1.42329346999999995;stroke-linecap:round;stroke-linejoin:miter;stroke-miterlimit:4;stroke-dasharray:none;stroke-dashoffset:0;stroke-opacity:1"
           id="path3279"
           sodipodi:cx="256.25"
           sodipodi:cy="531.11218"
           sodipodi:rx="26.964285"
           sodipodi:ry="26.964285"
           d="m 283.21428,531.11218 c 0,14.89197 -12.07232,26.96429 -26.96428,26.96429 -14.89196,0 -26.96428,-12.07232 -26.96428,-26.96429 0,-14.89196 12.07232,-26.96428 26.96428,-26.96428 14.89196,0 26.96428,12.07232 26.96428,26.96428 z"
           transform="matrix(0.3512979,0,0,0.3512979,282.02715,339.60253)" />
        <path
           transform="matrix(0.3512979,0,0,0.3512979,282.02715,339.60253)"
           d="m 283.21428,531.11218 c 0,14.89197 -12.07232,26.96429 -26.96428,26.96429 -14.89196,0 -26.96428,-12.07232 -26.96428,-26.96429 0,-14.89196 12.07232,-26.96428 26.96428,-26.96428 14.89196,0 26.96428,12.07232 26.96428,26.96428 z"
           sodipodi:ry="26.964285"
           sodipodi:rx="26.964285"
           sodipodi:cy="531.11218"
           sodipodi:cx="256.25"
           id="path3631"
           style="fill:url(#linearGradient5255);fill-opacity:1;stroke:none;stroke-width:1.42329346999999995;stroke-linecap:round;stroke-linejoin:miter;stroke-miterlimit:4;stroke-dasharray:none;stroke-dashoffset:0;stroke-opacity:1"
           sodipodi:type="arc" />
        <path
           sodipodi:type="arc"
           style="fill:url(#linearGradient5255);fill-opacity:1;stroke:none;stroke-width:1.42329346999999995;stroke-linecap:round;stroke-linejoin:miter;stroke-miterlimit:4;stroke-dasharray:none;stroke-dashoffset:0;stroke-opacity:1"
           id="path3652"
           sodipodi:cx="256.25"
           sodipodi:cy="531.11218"
           sodipodi:rx="26.964285"
           sodipodi:ry="26.964285"
           d="m 283.21428,531.11218 c 0,14.89197 -12.07232,26.96429 -26.96428,26.96429 -14.89196,0 -26.96428,-12.07232 -26.96428,-26.96429 0,-14.89196 12.07232,-26.96428 26.96428,-26.96428 14.89196,0 26.96428,12.07232 26.96428,26.96428 z"
           transform="matrix(0.3512979,0,0,0.3512979,282.02715,339.60253)" />
        <g
           id="g3827"
           transform="translate(87.500004,0)"
           style="fill:url(#linearGradient5255);fill-opacity:1;stroke:none">
          <path
             id="path3802"
             d="M 283.21428,531.11218 C 283.21428,545.99647 271.13429,558.07647 256.25,558.07647 C 241.36571,558.07647 229.28572,545.99647 229.28572,531.11218 C 229.28572,516.2279 241.36571,504.1479 256.25,504.1479 C 271.13429,504.1479 283.21428,516.2279 283.21428,531.11218 z"
             style="fill:url(#linearGradient5255);fill-opacity:1;stroke:none;stroke-width:1.42329346999999995;stroke-linecap:round;stroke-linejoin:miter;stroke-miterlimit:4;stroke-dashoffset:0;stroke-opacity:1;filter:url(#filter3808)"
             transform="matrix(0.3512979,0,0,0.3512979,194.52715,339.60253)" />
          <path
             sodipodi:nodetypes="cscc"
             id="path3820"
             d="M 231.31576,520.83504 C 235.35918,511.04386 245.00416,504.1479 256.25,504.1479 C 267.89475,504.1479 277.82305,511.54175 281.5932,521.88771 L 231.31576,520.83504 z"
             style="fill:url(#linearGradient5255);fill-opacity:1;stroke:none;stroke-width:1.42329346999999995;stroke-linecap:round;stroke-linejoin:miter;stroke-miterlimit:4;stroke-dashoffset:0;stroke-opacity:1;filter:url(#filter3808)"
             transform="matrix(0.3512979,0,0,0.3512979,194.52715,343.88824)" />
        </g>
        <path
           style="fill:url(#linearGradient5255);fill-opacity:1;stroke:none;stroke-width:0.50000000000000000;stroke-miterlimit:4;stroke-dasharray:none"
           d="M 369.21875,481.71875 L 367.0625,488.3125 L 367.0625,488.5 C 363.71706,488.93847 360.51392,489.78098 357.5,491.03125 L 357.4375,490.90625 L 352.25,486.25 L 347.375,489.0625 L 348.78125,495.875 L 348.875,496.03125 C 346.25289,498.04811 343.92441,500.41019 341.90625,503.03125 L 341.75,502.9375 L 334.9375,501.5 L 332.125,506.375 L 336.75,511.5625 L 336.90625,511.625 C 335.9698,513.88213 335.23983,516.26494 334.75,518.71875 C 334.58672,519.53669 334.45356,520.35245 334.34375,521.1875 L 334.1875,521.1875 L 327.5625,523.34375 L 327.5625,529 L 334.1875,531.15625 L 334.34375,531.15625 C 334.78223,534.50289 335.65541,537.70386 336.90625,540.71875 L 336.875,540.75 C 343.00883,541.31803 349.56904,541.33295 356.4375,540.71875 C 377.56932,538.82909 397.01015,531.402 410.3125,521.3125 L 409.90625,521.1875 L 409.75,521.1875 C 409.31075,517.84732 408.4361,514.63451 407.1875,511.625 L 407.34375,511.5625 L 411.96875,506.375 L 409.15625,501.5 L 402.34375,502.9375 L 402.1875,503.03125 C 400.16934,500.41019 397.84086,498.04811 395.21875,496.03125 L 395.3125,495.875 L 396.71875,489.0625 L 391.84375,486.25 L 386.65625,490.90625 L 386.59375,491.03125 C 383.57983,489.78098 380.37669,488.93847 377.03125,488.5 L 377.03125,488.3125 L 374.875,481.71875 L 369.21875,481.71875 z"
           id="path2443" />
      </g>
      <g
         transform="matrix(0.6787471,0,0,0.6787471,178.44468,214.03925)"
         id="g3344"
         style="fill:url(#linearGradient5255);fill-opacity:1;stroke:none">
        <path
           id="path3346"
           d="M 369.21912,481.71875 L 367.06287,488.3125 L 367.06287,488.5 C 363.71743,488.93847 360.51429,489.78098 357.50037,491.03125 L 357.43787,490.90625 L 352.25037,486.25 L 347.37537,489.0625 L 348.78162,495.875 L 348.87537,496.03125 C 346.25326,498.04811 343.92478,500.41019 341.90662,503.03125 L 341.75037,502.9375 L 334.93787,501.5 L 332.12537,506.375 L 336.75037,511.5625 L 336.90662,511.625 C 335.65802,514.63451 334.78336,517.84732 334.34412,521.1875 L 334.18787,521.1875 L 327.56287,523.34375 L 327.56287,529 L 334.18787,531.15625 L 334.34412,531.15625 C 334.7826,534.50289 335.65578,537.70386 336.90662,540.71875 L 336.75037,540.8125 L 332.12537,545.96875 L 334.93787,550.875 L 341.75037,549.4375 L 341.87537,549.34375 C 343.89615,551.97096 346.24816,554.32297 348.87537,556.34375 L 348.78162,556.5 L 347.37537,563.28125 L 352.25037,566.09375 L 357.43787,561.46875 L 357.53162,561.3125 C 360.53821,562.55718 363.72677,563.43775 367.06287,563.875 L 367.06287,564.0625 L 369.21912,570.65625 L 374.87537,570.65625 L 377.03162,564.0625 L 377.03162,563.875 C 380.36772,563.43775 383.55628,562.55718 386.56287,561.3125 L 386.65662,561.46875 L 391.84412,566.09375 L 396.71912,563.28125 L 395.31287,556.5 L 395.21912,556.34375 C 397.84633,554.32297 400.19834,551.97096 402.21912,549.34375 L 402.34412,549.4375 L 409.15662,550.875 L 411.96912,545.96875 L 407.34412,540.8125 L 407.18787,540.71875 C 408.43871,537.70386 409.31189,534.50289 409.75037,531.15625 L 409.90662,531.15625 L 416.53162,529 L 416.53162,523.34375 L 409.90662,521.1875 L 409.75037,521.1875 C 409.31112,517.84732 408.43647,514.63451 407.18787,511.625 L 407.34412,511.5625 L 411.96912,506.375 L 409.15662,501.5 L 402.34412,502.9375 L 402.18787,503.03125 C 400.16971,500.41019 397.84123,498.04811 395.21912,496.03125 L 395.31287,495.875 L 396.71912,489.0625 L 391.84412,486.25 L 386.65662,490.90625 L 386.59412,491.03125 C 383.5802,489.78098 380.37706,488.93847 377.03162,488.5 L 377.03162,488.3125 L 374.87537,481.71875 L 369.21912,481.71875 z M 372.06287,492.4375 C 390.69286,492.43751 405.81287,507.55751 405.81287,526.1875 C 405.81288,544.81748 390.69287,559.9375 372.06287,559.9375 C 353.43285,559.93748 338.31287,544.8175 338.31287,526.1875 C 338.31287,507.55748 353.43287,492.4375 372.06287,492.4375 z"
           style="fill:url(#linearGradient5255);fill-opacity:1;stroke:none;stroke-width:0.50000000000000000;stroke-miterlimit:4;stroke-dasharray:none;filter:url(#filter3525)" />
        <path
           style="fill:url(#linearGradient5255);fill-opacity:1;stroke:none;stroke-width:0.50000000000000000;stroke-miterlimit:4;stroke-dasharray:none"
           d="M 369.21912,481.71875 L 367.06287,488.3125 L 367.06287,488.5 C 363.71743,488.93847 360.51429,489.78098 357.50037,491.03125 L 357.43787,490.90625 L 352.25037,486.25 L 347.37537,489.0625 L 348.78162,495.875 L 348.87537,496.03125 C 346.25326,498.04811 343.92478,500.41019 341.90662,503.03125 L 341.75037,502.9375 L 334.93787,501.5 L 332.12537,506.375 L 336.75037,511.5625 L 336.90662,511.625 C 335.65802,514.63451 334.78336,517.84732 334.34412,521.1875 L 334.18787,521.1875 L 327.56287,523.34375 L 327.56287,529 L 334.18787,531.15625 L 334.34412,531.15625 C 334.7826,534.50289 335.65578,537.70386 336.90662,540.71875 L 336.75037,540.8125 L 332.12537,545.96875 L 334.93787,550.875 L 341.75037,549.4375 L 341.87537,549.34375 C 343.89615,551.97096 346.24816,554.32297 348.87537,556.34375 L 348.78162,556.5 L 347.37537,563.28125 L 352.25037,566.09375 L 357.43787,561.46875 L 357.53162,561.3125 C 360.53821,562.55718 363.72677,563.43775 367.06287,563.875 L 367.06287,564.0625 L 369.21912,570.65625 L 374.87537,570.65625 L 377.03162,564.0625 L 377.03162,563.875 C 380.36772,563.43775 383.55628,562.55718 386.56287,561.3125 L 386.65662,561.46875 L 391.84412,566.09375 L 396.71912,563.28125 L 395.31287,556.5 L 395.21912,556.34375 C 397.84633,554.32297 400.19834,551.97096 402.21912,549.34375 L 402.34412,549.4375 L 409.15662,550.875 L 411.96912,545.96875 L 407.34412,540.8125 L 407.18787,540.71875 C 408.43871,537.70386 409.31189,534.50289 409.75037,531.15625 L 409.90662,531.15625 L 416.53162,529 L 416.53162,523.34375 L 409.90662,521.1875 L 409.75037,521.1875 C 409.31112,517.84732 408.43647,514.63451 407.18787,511.625 L 407.34412,511.5625 L 411.96912,506.375 L 409.15662,501.5 L 402.34412,502.9375 L 402.18787,503.03125 C 400.16971,500.41019 397.84123,498.04811 395.21912,496.03125 L 395.31287,495.875 L 396.71912,489.0625 L 391.84412,486.25 L 386.65662,490.90625 L 386.59412,491.03125 C 383.5802,489.78098 380.37706,488.93847 377.03162,488.5 L 377.03162,488.3125 L 374.87537,481.71875 L 369.21912,481.71875 z M 372.06287,492.4375 C 390.69286,492.43751 405.81287,507.55751 405.81287,526.1875 C 405.81288,544.81748 390.69287,559.9375 372.06287,559.9375 C 353.43285,559.93748 338.31287,544.8175 338.31287,526.1875 C 338.31287,507.55748 353.43287,492.4375 372.06287,492.4375 z"
           id="path3348" />
        <path
           transform="matrix(1.2649007,0,0,1.2649007,47.916443,-145.62307)"
           d="m 283.21428,531.11218 c 0,14.89197 -12.07232,26.96429 -26.96428,26.96429 -14.89196,0 -26.96428,-12.07232 -26.96428,-26.96429 0,-14.89196 12.07232,-26.96428 26.96428,-26.96428 14.89196,0 26.96428,12.07232 26.96428,26.96428 z"
           sodipodi:ry="26.964285"
           sodipodi:rx="26.964285"
           sodipodi:cy="531.11218"
           sodipodi:cx="256.25"
           id="path3350"
           style="fill:url(#linearGradient5255);fill-opacity:1;stroke:none;stroke-width:0.39528795999999999;stroke-linecap:round;stroke-linejoin:miter;stroke-miterlimit:4;stroke-dasharray:none;stroke-dashoffset:0;stroke-opacity:1"
           sodipodi:type="arc" />
        <path
           sodipodi:type="arc"
           style="fill:url(#linearGradient5255);fill-opacity:1;stroke:none;stroke-width:0.44674556999999998;stroke-linecap:round;stroke-linejoin:miter;stroke-miterlimit:4;stroke-dasharray:none;stroke-dashoffset:0;stroke-opacity:1"
           id="path3352"
           sodipodi:cx="256.25"
           sodipodi:cy="531.11218"
           sodipodi:rx="26.964285"
           sodipodi:ry="26.964285"
           d="m 283.21428,531.11218 c 0,14.89197 -12.07232,26.96429 -26.96428,26.96429 -14.89196,0 -26.96428,-12.07232 -26.96428,-26.96429 0,-14.89196 12.07232,-26.96428 26.96428,-26.96428 14.89196,0 26.96428,12.07232 26.96428,26.96428 z"
           transform="matrix(1.1192053,0,0,1.1192053,85.250881,-68.242483)" />
        <g
           id="g3354"
           style="fill:url(#linearGradient5255);fill-opacity:1;stroke:none">
          <path
             transform="matrix(0.5231788,0,0,0.5231788,237.98267,248.31446)"
             d="m 283.21428,531.11218 c 0,14.89197 -12.07232,26.96429 -26.96428,26.96429 -14.89196,0 -26.96428,-12.07232 -26.96428,-26.96429 0,-14.89196 12.07232,-26.96428 26.96428,-26.96428 14.89196,0 26.96428,12.07232 26.96428,26.96428 z"
             sodipodi:ry="26.964285"
             sodipodi:rx="26.964285"
             sodipodi:cy="531.11218"
             sodipodi:cx="256.25"
             id="path3356"
             style="fill:url(#linearGradient5255);fill-opacity:1;stroke:none;stroke-width:0.95569605000000002;stroke-linecap:round;stroke-linejoin:miter;stroke-miterlimit:4;stroke-dasharray:none;stroke-dashoffset:0;stroke-opacity:1"
             sodipodi:type="arc" />
          <path
             sodipodi:type="arc"
             style="fill:url(#linearGradient5255);fill-opacity:1;stroke:none;stroke-width:0.95569605000000002;stroke-linecap:round;stroke-linejoin:miter;stroke-miterlimit:4;stroke-dasharray:none;stroke-dashoffset:0;stroke-opacity:1"
             id="path3358"
             sodipodi:cx="256.25"
             sodipodi:cy="531.11218"
             sodipodi:rx="26.964285"
             sodipodi:ry="26.964285"
             d="m 283.21428,531.11218 c 0,14.89197 -12.07232,26.96429 -26.96428,26.96429 -14.89196,0 -26.96428,-12.07232 -26.96428,-26.96429 0,-14.89196 12.07232,-26.96428 26.96428,-26.96428 14.89196,0 26.96428,12.07232 26.96428,26.96428 z"
             transform="matrix(0.5231788,0,0,0.5231788,237.98267,248.31446)" />
        </g>
        <path
           transform="matrix(0.3512979,0,0,0.3512979,282.02715,339.60253)"
           d="m 283.21428,531.11218 c 0,14.89197 -12.07232,26.96429 -26.96428,26.96429 -14.89196,0 -26.96428,-12.07232 -26.96428,-26.96429 0,-14.89196 12.07232,-26.96428 26.96428,-26.96428 14.89196,0 26.96428,12.07232 26.96428,26.96428 z"
           sodipodi:ry="26.964285"
           sodipodi:rx="26.964285"
           sodipodi:cy="531.11218"
           sodipodi:cx="256.25"
           id="path3360"
           style="fill:url(#linearGradient5255);fill-opacity:1;stroke:none;stroke-width:1.42329346999999995;stroke-linecap:round;stroke-linejoin:miter;stroke-miterlimit:4;stroke-dasharray:none;stroke-dashoffset:0;stroke-opacity:1"
           sodipodi:type="arc" />
        <path
           sodipodi:type="arc"
           style="fill:url(#linearGradient5255);fill-opacity:1;stroke:none;stroke-width:1.42329346999999995;stroke-linecap:round;stroke-linejoin:miter;stroke-miterlimit:4;stroke-dasharray:none;stroke-dashoffset:0;stroke-opacity:1"
           id="path3362"
           sodipodi:cx="256.25"
           sodipodi:cy="531.11218"
           sodipodi:rx="26.964285"
           sodipodi:ry="26.964285"
           d="m 283.21428,531.11218 c 0,14.89197 -12.07232,26.96429 -26.96428,26.96429 -14.89196,0 -26.96428,-12.07232 -26.96428,-26.96429 0,-14.89196 12.07232,-26.96428 26.96428,-26.96428 14.89196,0 26.96428,12.07232 26.96428,26.96428 z"
           transform="matrix(0.3512979,0,0,0.3512979,282.02715,339.60253)" />
        <path
           transform="matrix(0.3512979,0,0,0.3512979,282.02715,339.60253)"
           d="m 283.21428,531.11218 c 0,14.89197 -12.07232,26.96429 -26.96428,26.96429 -14.89196,0 -26.96428,-12.07232 -26.96428,-26.96429 0,-14.89196 12.07232,-26.96428 26.96428,-26.96428 14.89196,0 26.96428,12.07232 26.96428,26.96428 z"
           sodipodi:ry="26.964285"
           sodipodi:rx="26.964285"
           sodipodi:cy="531.11218"
           sodipodi:cx="256.25"
           id="path3364"
           style="fill:url(#linearGradient5255);fill-opacity:1;stroke:none;stroke-width:1.42329346999999995;stroke-linecap:round;stroke-linejoin:miter;stroke-miterlimit:4;stroke-dasharray:none;stroke-dashoffset:0;stroke-opacity:1"
           sodipodi:type="arc" />
        <g
           transform="translate(87.500004,0)"
           id="g3366"
           style="fill:url(#linearGradient5255);fill-opacity:1;stroke:none">
          <path
             transform="matrix(0.3512979,0,0,0.3512979,194.52715,339.60253)"
             style="fill:url(#linearGradient5255);fill-opacity:1;stroke:none;stroke-width:1.42329346999999995;stroke-linecap:round;stroke-linejoin:miter;stroke-miterlimit:4;stroke-dashoffset:0;stroke-opacity:1;filter:url(#filter3808)"
             d="M 283.21428,531.11218 C 283.21428,545.99647 271.13429,558.07647 256.25,558.07647 C 241.36571,558.07647 229.28572,545.99647 229.28572,531.11218 C 229.28572,516.2279 241.36571,504.1479 256.25,504.1479 C 271.13429,504.1479 283.21428,516.2279 283.21428,531.11218 z"
             id="path3368" />
          <path
             transform="matrix(0.3512979,0,0,0.3512979,194.52715,343.88824)"
             style="fill:url(#linearGradient5255);fill-opacity:1;stroke:none;stroke-width:1.42329346999999995;stroke-linecap:round;stroke-linejoin:miter;stroke-miterlimit:4;stroke-dashoffset:0;stroke-opacity:1;filter:url(#filter3808)"
             d="M 231.31576,520.83504 C 235.35918,511.04386 245.00416,504.1479 256.25,504.1479 C 267.89475,504.1479 277.82305,511.54175 281.5932,521.88771 L 231.31576,520.83504 z"
             id="path3370"
             sodipodi:nodetypes="cscc" />
        </g>
        <path
           id="path3372"
           d="M 369.21875,481.71875 L 367.0625,488.3125 L 367.0625,488.5 C 363.71706,488.93847 360.51392,489.78098 357.5,491.03125 L 357.4375,490.90625 L 352.25,486.25 L 347.375,489.0625 L 348.78125,495.875 L 348.875,496.03125 C 346.25289,498.04811 343.92441,500.41019 341.90625,503.03125 L 341.75,502.9375 L 334.9375,501.5 L 332.125,506.375 L 336.75,511.5625 L 336.90625,511.625 C 335.9698,513.88213 335.23983,516.26494 334.75,518.71875 C 334.58672,519.53669 334.45356,520.35245 334.34375,521.1875 L 334.1875,521.1875 L 327.5625,523.34375 L 327.5625,529 L 334.1875,531.15625 L 334.34375,531.15625 C 334.78223,534.50289 335.65541,537.70386 336.90625,540.71875 L 336.875,540.75 C 343.00883,541.31803 349.56904,541.33295 356.4375,540.71875 C 377.56932,538.82909 397.01015,531.402 410.3125,521.3125 L 409.90625,521.1875 L 409.75,521.1875 C 409.31075,517.84732 408.4361,514.63451 407.1875,511.625 L 407.34375,511.5625 L 411.96875,506.375 L 409.15625,501.5 L 402.34375,502.9375 L 402.1875,503.03125 C 400.16934,500.41019 397.84086,498.04811 395.21875,496.03125 L 395.3125,495.875 L 396.71875,489.0625 L 391.84375,486.25 L 386.65625,490.90625 L 386.59375,491.03125 C 383.57983,489.78098 380.37669,488.93847 377.03125,488.5 L 377.03125,488.3125 L 374.875,481.71875 L 369.21875,481.71875 z"
           style="fill:url(#linearGradient5255);fill-opacity:1;stroke:none;stroke-width:0.50000000000000000;stroke-miterlimit:4;stroke-dasharray:none" />
      </g>
    </g>
  </g>
</svg>
